<?xml version="1.0" encoding="utf-8" standalone="no"?>
<!DOCTYPE svg PUBLIC "-//W3C//DTD SVG 1.1//EN"
  "http://www.w3.org/Graphics/SVG/1.1/DTD/svg11.dtd">
<svg xmlns:xlink="http://www.w3.org/1999/xlink" width="418.335pt" height="443.152669pt" viewBox="0 0 418.335 443.152669" xmlns="http://www.w3.org/2000/svg" version="1.1">
 <metadata>
  <rdf:RDF xmlns:dc="http://purl.org/dc/elements/1.1/" xmlns:cc="http://creativecommons.org/ns#" xmlns:rdf="http://www.w3.org/1999/02/22-rdf-syntax-ns#">
   <cc:Work>
    <dc:type rdf:resource="http://purl.org/dc/dcmitype/StillImage"/>
    <dc:date>2026-02-03T13:37:29.729614</dc:date>
    <dc:format>image/svg+xml</dc:format>
    <dc:creator>
     <cc:Agent>
      <dc:title>Matplotlib v3.10.8, https://matplotlib.org/</dc:title>
     </cc:Agent>
    </dc:creator>
   </cc:Work>
  </rdf:RDF>
 </metadata>
 <defs>
  <style type="text/css">*{stroke-linejoin: round; stroke-linecap: butt}</style>
 </defs>
 <g id="figure_1">
  <g id="patch_1">
   <path d="M 0 443.152669 
L 418.335 443.152669 
L 418.335 0 
L 0 0 
z
" style="fill: #ffffff"/>
  </g>
  <g id="axes_1">
   <g id="patch_2">
    <path d="M 54.015 277.111219 
L 411.135 277.111219 
L 411.135 10.999219 
L 54.015 10.999219 
z
" style="fill: #ffffff"/>
   </g>
   <g id="FillBetweenPolyCollection_1">
    <defs>
     <path id="mbcf5b0e709" d="M 98.567453 -245.002162 
L 88.307223 -245.002162 
L 87.906025 -246.384757 
L 87.501409 -247.767351 
L 87.095986 -249.149946 
L 86.692192 -250.53254 
L 86.292181 -251.915135 
L 85.897719 -253.29773 
L 85.510088 -254.680324 
L 85.130006 -256.062919 
L 84.75757 -257.445514 
L 84.392229 -258.828108 
L 84.032778 -260.210703 
L 83.677406 -261.593298 
L 83.323752 -262.975892 
L 82.96902 -264.358487 
L 82.610104 -265.741081 
L 82.243747 -267.123676 
L 81.86671 -268.506271 
L 81.475958 -269.888865 
L 81.068829 -271.27146 
L 80.643212 -272.654055 
L 80.197685 -274.036649 
L 79.731636 -275.419244 
L 79.245345 -276.801839 
L 78.740026 -278.184433 
L 78.217822 -279.567028 
L 77.681759 -280.949622 
L 77.135662 -282.332217 
L 76.584022 -283.714812 
L 76.031841 -285.097406 
L 75.484448 -286.480001 
L 74.947301 -287.862596 
L 74.425783 -289.24519 
L 73.925005 -290.627785 
L 73.449619 -292.01038 
L 73.003658 -293.392974 
L 72.590404 -294.775569 
L 72.212296 -296.158163 
L 71.87088 -297.540758 
L 71.566799 -298.923353 
L 71.299831 -300.305947 
L 71.068966 -301.688542 
L 70.872526 -303.071137 
L 70.708306 -304.453731 
L 70.573748 -305.836326 
L 70.466127 -307.218921 
L 70.382734 -308.601515 
L 70.321066 -309.98411 
L 70.278987 -311.366704 
L 70.254874 -312.749299 
L 70.247727 -314.131894 
L 70.257241 -315.514488 
L 70.283838 -316.897083 
L 70.328655 -318.279678 
L 70.393492 -319.662272 
L 70.480724 -321.044867 
L 70.593173 -322.427462 
L 70.733964 -323.810056 
L 70.906355 -325.192651 
L 71.113562 -326.575245 
L 71.358584 -327.95784 
L 71.644037 -329.340435 
L 71.972001 -330.723029 
L 72.34389 -332.105624 
L 72.760354 -333.488219 
L 73.221208 -334.870813 
L 73.725394 -336.253408 
L 74.270978 -337.636003 
L 74.855177 -339.018597 
L 75.474419 -340.401192 
L 76.124424 -341.783786 
L 76.800314 -343.166381 
L 77.496731 -344.548976 
L 78.20798 -345.93157 
L 78.928168 -347.314165 
L 79.651355 -348.69676 
L 80.371692 -350.079354 
L 81.083565 -351.461949 
L 81.781717 -352.844544 
L 82.461365 -354.227138 
L 83.118293 -355.609733 
L 83.748932 -356.992327 
L 84.350409 -358.374922 
L 84.920585 -359.757517 
L 85.458062 -361.140111 
L 85.962171 -362.522706 
L 86.432937 -363.905301 
L 86.871026 -365.287895 
L 87.277675 -366.67049 
L 87.654603 -368.053085 
L 88.00392 -369.435679 
L 88.328019 -370.818274 
L 88.629477 -372.200868 
L 88.910944 -373.583463 
L 89.175048 -374.966058 
L 89.424304 -376.348652 
L 89.661039 -377.731247 
L 89.88732 -379.113842 
L 90.104915 -380.496436 
L 90.315258 -381.879031 
L 96.559417 -381.879031 
L 96.559417 -381.879031 
L 96.76976 -380.496436 
L 96.987355 -379.113842 
L 97.213637 -377.731247 
L 97.450371 -376.348652 
L 97.699628 -374.966058 
L 97.963732 -373.583463 
L 98.245198 -372.200868 
L 98.546656 -370.818274 
L 98.870756 -369.435679 
L 99.220072 -368.053085 
L 99.597001 -366.67049 
L 100.003649 -365.287895 
L 100.441739 -363.905301 
L 100.912505 -362.522706 
L 101.416613 -361.140111 
L 101.95409 -359.757517 
L 102.524266 -358.374922 
L 103.125743 -356.992327 
L 103.756382 -355.609733 
L 104.413311 -354.227138 
L 105.092959 -352.844544 
L 105.791111 -351.461949 
L 106.502983 -350.079354 
L 107.22332 -348.69676 
L 107.946507 -347.314165 
L 108.666696 -345.93157 
L 109.377945 -344.548976 
L 110.074362 -343.166381 
L 110.750251 -341.783786 
L 111.400256 -340.401192 
L 112.019498 -339.018597 
L 112.603698 -337.636003 
L 113.149282 -336.253408 
L 113.653468 -334.870813 
L 114.114322 -333.488219 
L 114.530786 -332.105624 
L 114.902674 -330.723029 
L 115.230638 -329.340435 
L 115.516091 -327.95784 
L 115.761114 -326.575245 
L 115.968321 -325.192651 
L 116.140711 -323.810056 
L 116.281502 -322.427462 
L 116.393952 -321.044867 
L 116.481183 -319.662272 
L 116.546021 -318.279678 
L 116.590837 -316.897083 
L 116.617434 -315.514488 
L 116.626948 -314.131894 
L 116.619801 -312.749299 
L 116.595689 -311.366704 
L 116.55361 -309.98411 
L 116.491941 -308.601515 
L 116.408549 -307.218921 
L 116.300927 -305.836326 
L 116.16637 -304.453731 
L 116.002149 -303.071137 
L 115.805709 -301.688542 
L 115.574845 -300.305947 
L 115.307877 -298.923353 
L 115.003795 -297.540758 
L 114.662379 -296.158163 
L 114.284272 -294.775569 
L 113.871017 -293.392974 
L 113.425056 -292.01038 
L 112.94967 -290.627785 
L 112.448892 -289.24519 
L 111.927374 -287.862596 
L 111.390227 -286.480001 
L 110.842834 -285.097406 
L 110.290653 -283.714812 
L 109.739013 -282.332217 
L 109.192916 -280.949622 
L 108.656854 -279.567028 
L 108.134649 -278.184433 
L 107.62933 -276.801839 
L 107.143039 -275.419244 
L 106.67699 -274.036649 
L 106.231463 -272.654055 
L 105.805846 -271.27146 
L 105.398718 -269.888865 
L 105.007965 -268.506271 
L 104.630929 -267.123676 
L 104.264571 -265.741081 
L 103.905655 -264.358487 
L 103.550923 -262.975892 
L 103.19727 -261.593298 
L 102.841897 -260.210703 
L 102.482447 -258.828108 
L 102.117105 -257.445514 
L 101.74467 -256.062919 
L 101.364588 -254.680324 
L 100.976957 -253.29773 
L 100.582495 -251.915135 
L 100.182483 -250.53254 
L 99.778689 -249.149946 
L 99.373266 -247.767351 
L 98.968651 -246.384757 
L 98.567453 -245.002162 
z
" style="stroke: #000000"/>
    </defs>
    <g clip-path="url(#p06649d0ffe)">
     <use xlink:href="#mbcf5b0e709" x="0" y="443.152669" style="fill: #f08080; stroke: #000000"/>
    </g>
   </g>
   <g id="FillBetweenPolyCollection_2">
    <defs>
     <path id="mcc3bb4f5f9" d="M 190.157174 -209.584547 
L 182.234384 -209.584547 
L 181.847486 -210.605858 
L 181.433761 -211.627169 
L 180.991058 -212.648479 
L 180.517135 -213.66979 
L 180.009788 -214.691101 
L 179.467002 -215.712412 
L 178.887127 -216.733723 
L 178.269064 -217.755034 
L 177.612446 -218.776345 
L 176.917813 -219.797656 
L 176.186755 -220.818967 
L 175.422017 -221.840277 
L 174.627555 -222.861588 
L 173.80853 -223.882899 
L 172.971243 -224.90421 
L 172.123002 -225.925521 
L 171.271932 -226.946832 
L 170.426734 -227.968143 
L 169.596401 -228.989454 
L 168.789922 -230.010765 
L 168.015965 -231.032075 
L 167.282586 -232.053386 
L 166.596959 -233.074697 
L 165.965154 -234.096008 
L 165.391969 -235.117319 
L 164.880821 -236.13863 
L 164.433717 -237.159941 
L 164.051272 -238.181252 
L 163.732805 -239.202562 
L 163.476473 -240.223873 
L 163.279462 -241.245184 
L 163.138194 -242.266495 
L 163.048562 -243.287806 
L 163.006169 -244.309117 
L 163.00656 -245.330428 
L 163.04544 -246.351739 
L 163.118873 -247.37305 
L 163.223445 -248.39436 
L 163.356397 -249.415671 
L 163.515718 -250.436982 
L 163.700192 -251.458293 
L 163.909412 -252.479604 
L 164.14374 -253.500915 
L 164.404231 -254.522226 
L 164.692517 -255.543537 
L 165.010661 -256.564848 
L 165.360978 -257.586158 
L 165.745845 -258.607469 
L 166.167495 -259.62878 
L 166.627821 -260.650091 
L 167.128191 -261.671402 
L 167.669286 -262.692713 
L 168.250973 -263.714024 
L 168.87222 -264.735335 
L 169.531055 -265.756645 
L 170.224573 -266.777956 
L 170.948985 -267.799267 
L 171.699714 -268.820578 
L 172.471517 -269.841889 
L 173.258638 -270.8632 
L 174.054973 -271.884511 
L 174.854239 -272.905822 
L 175.650142 -273.927133 
L 176.436528 -274.948443 
L 177.207518 -275.969754 
L 177.957618 -276.991065 
L 178.681807 -278.012376 
L 179.375593 -279.033687 
L 180.035051 -280.054998 
L 180.656839 -281.076309 
L 181.238191 -282.09762 
L 181.776904 -283.118931 
L 182.271311 -284.140241 
L 182.720249 -285.161552 
L 183.123029 -286.182863 
L 183.479406 -287.204174 
L 183.789547 -288.225485 
L 184.054017 -289.246796 
L 184.27376 -290.268107 
L 184.450089 -291.289418 
L 184.584691 -292.310728 
L 184.679622 -293.332039 
L 184.737315 -294.35335 
L 184.760587 -295.374661 
L 184.752632 -296.395972 
L 184.717019 -297.417283 
L 184.657671 -298.438594 
L 184.57883 -299.459905 
L 184.485008 -300.481216 
L 184.380915 -301.502526 
L 184.27137 -302.523837 
L 184.161197 -303.545148 
L 184.0551 -304.566459 
L 183.957539 -305.58777 
L 183.872597 -306.609081 
L 183.803851 -307.630392 
L 183.75426 -308.651703 
L 183.726072 -309.673014 
L 183.720754 -310.694324 
L 188.670805 -310.694324 
L 188.670805 -310.694324 
L 188.665486 -309.673014 
L 188.637298 -308.651703 
L 188.587707 -307.630392 
L 188.518961 -306.609081 
L 188.434019 -305.58777 
L 188.336459 -304.566459 
L 188.230362 -303.545148 
L 188.120188 -302.523837 
L 188.010643 -301.502526 
L 187.90655 -300.481216 
L 187.812728 -299.459905 
L 187.733887 -298.438594 
L 187.674539 -297.417283 
L 187.638926 -296.395972 
L 187.630971 -295.374661 
L 187.654243 -294.35335 
L 187.711937 -293.332039 
L 187.806868 -292.310728 
L 187.941469 -291.289418 
L 188.117799 -290.268107 
L 188.337541 -289.246796 
L 188.602011 -288.225485 
L 188.912153 -287.204174 
L 189.268529 -286.182863 
L 189.67131 -285.161552 
L 190.120248 -284.140241 
L 190.614654 -283.118931 
L 191.153367 -282.09762 
L 191.734719 -281.076309 
L 192.356507 -280.054998 
L 193.015966 -279.033687 
L 193.709751 -278.012376 
L 194.43394 -276.991065 
L 195.184041 -275.969754 
L 195.95503 -274.948443 
L 196.741416 -273.927133 
L 197.537319 -272.905822 
L 198.336586 -271.884511 
L 199.13292 -270.8632 
L 199.920041 -269.841889 
L 200.691844 -268.820578 
L 201.442573 -267.799267 
L 202.166986 -266.777956 
L 202.860504 -265.756645 
L 203.519339 -264.735335 
L 204.140586 -263.714024 
L 204.722273 -262.692713 
L 205.263367 -261.671402 
L 205.763737 -260.650091 
L 206.224063 -259.62878 
L 206.645713 -258.607469 
L 207.03058 -257.586158 
L 207.380898 -256.564848 
L 207.699042 -255.543537 
L 207.987328 -254.522226 
L 208.247818 -253.500915 
L 208.482146 -252.479604 
L 208.691366 -251.458293 
L 208.875841 -250.436982 
L 209.035161 -249.415671 
L 209.168113 -248.39436 
L 209.272685 -247.37305 
L 209.346118 -246.351739 
L 209.384999 -245.330428 
L 209.38539 -244.309117 
L 209.342997 -243.287806 
L 209.253365 -242.266495 
L 209.112097 -241.245184 
L 208.915085 -240.223873 
L 208.658754 -239.202562 
L 208.340286 -238.181252 
L 207.957842 -237.159941 
L 207.510737 -236.13863 
L 206.99959 -235.117319 
L 206.426404 -234.096008 
L 205.794599 -233.074697 
L 205.108973 -232.053386 
L 204.375594 -231.032075 
L 203.601637 -230.010765 
L 202.795157 -228.989454 
L 201.964825 -227.968143 
L 201.119626 -226.946832 
L 200.268556 -225.925521 
L 199.420316 -224.90421 
L 198.583029 -223.882899 
L 197.764004 -222.861588 
L 196.969541 -221.840277 
L 196.204803 -220.818967 
L 195.473745 -219.797656 
L 194.779112 -218.776345 
L 194.122494 -217.755034 
L 193.504431 -216.733723 
L 192.924557 -215.712412 
L 192.381771 -214.691101 
L 191.874423 -213.66979 
L 191.4005 -212.648479 
L 190.957797 -211.627169 
L 190.544072 -210.605858 
L 190.157174 -209.584547 
z
" style="stroke: #000000"/>
    </defs>
    <g clip-path="url(#p06649d0ffe)">
     <use xlink:href="#mcc3bb4f5f9" x="0" y="443.152669" style="fill: #87ceeb; stroke: #000000"/>
    </g>
   </g>
   <g id="FillBetweenPolyCollection_3">
    <defs>
     <path id="md26a9e7051" d="M 285.203956 -178.56124 
L 272.704486 -178.56124 
L 272.03064 -179.856153 
L 271.317755 -181.151066 
L 270.567517 -182.445978 
L 269.782354 -183.740891 
L 268.965541 -185.035804 
L 268.121264 -186.330717 
L 267.254659 -187.62563 
L 266.371805 -188.920543 
L 265.479671 -190.215456 
L 264.585994 -191.510369 
L 263.699112 -192.805282 
L 262.827746 -194.100195 
L 261.980733 -195.395107 
L 261.166738 -196.69002 
L 260.393951 -197.984933 
L 259.669798 -199.279846 
L 259.000675 -200.574759 
L 258.391731 -201.869672 
L 257.846709 -203.164585 
L 257.367869 -204.459498 
L 256.955981 -205.754411 
L 256.610399 -207.049324 
L 256.329219 -208.344236 
L 256.109482 -209.639149 
L 255.947448 -210.934062 
L 255.838883 -212.228975 
L 255.779371 -213.523888 
L 255.76461 -214.818801 
L 255.79069 -216.113714 
L 255.854324 -217.408627 
L 255.953037 -218.70354 
L 256.085281 -219.998453 
L 256.250489 -221.293365 
L 256.449066 -222.588278 
L 256.682302 -223.883191 
L 256.952233 -225.178104 
L 257.261441 -226.473017 
L 257.612808 -227.76793 
L 258.009238 -229.062843 
L 258.453357 -230.357756 
L 258.947212 -231.652669 
L 259.49197 -232.947581 
L 260.087662 -234.242494 
L 260.732963 -235.537407 
L 261.425042 -236.83232 
L 262.159492 -238.127233 
L 262.930346 -239.422146 
L 263.730189 -240.717059 
L 264.550368 -242.011972 
L 265.381284 -243.306885 
L 266.212758 -244.601798 
L 267.034447 -245.89671 
L 267.836281 -247.191623 
L 268.608906 -248.486536 
L 269.344083 -249.781449 
L 270.035031 -251.076362 
L 270.676685 -252.371275 
L 271.265862 -253.666188 
L 271.801301 -254.961101 
L 272.283612 -256.256014 
L 272.715112 -257.550927 
L 273.099578 -258.845839 
L 273.441933 -260.140752 
L 273.747895 -261.435665 
L 274.023599 -262.730578 
L 274.275241 -264.025491 
L 274.508744 -265.320404 
L 274.729473 -266.615317 
L 274.942014 -267.91023 
L 275.150019 -269.205143 
L 275.35612 -270.500055 
L 275.561911 -271.794968 
L 275.767992 -273.089881 
L 275.974052 -274.384794 
L 276.179004 -275.679707 
L 276.381142 -276.97462 
L 276.578305 -278.269533 
L 276.768063 -279.564446 
L 276.947883 -280.859359 
L 277.115295 -282.154272 
L 277.268037 -283.449184 
L 277.404182 -284.744097 
L 277.522241 -286.03901 
L 277.621241 -287.333923 
L 277.700777 -288.628836 
L 277.761038 -289.923749 
L 277.802811 -291.218662 
L 277.82745 -292.513575 
L 277.836829 -293.808488 
L 277.833272 -295.103401 
L 277.819459 -296.398313 
L 277.798316 -297.693226 
L 277.772902 -298.988139 
L 277.746278 -300.283052 
L 277.721386 -301.577965 
L 277.700923 -302.872878 
L 277.687243 -304.167791 
L 277.682261 -305.462704 
L 277.687389 -306.757617 
L 280.221053 -306.757617 
L 280.221053 -306.757617 
L 280.226181 -305.462704 
L 280.221198 -304.167791 
L 280.207518 -302.872878 
L 280.187056 -301.577965 
L 280.162163 -300.283052 
L 280.13554 -298.988139 
L 280.110126 -297.693226 
L 280.088983 -296.398313 
L 280.075169 -295.103401 
L 280.071612 -293.808488 
L 280.080992 -292.513575 
L 280.105631 -291.218662 
L 280.147403 -289.923749 
L 280.207665 -288.628836 
L 280.287201 -287.333923 
L 280.3862 -286.03901 
L 280.504259 -284.744097 
L 280.640405 -283.449184 
L 280.793147 -282.154272 
L 280.960558 -280.859359 
L 281.140378 -279.564446 
L 281.330136 -278.269533 
L 281.5273 -276.97462 
L 281.729437 -275.679707 
L 281.93439 -274.384794 
L 282.14045 -273.089881 
L 282.34653 -271.794968 
L 282.552322 -270.500055 
L 282.758423 -269.205143 
L 282.966427 -267.91023 
L 283.178968 -266.615317 
L 283.399697 -265.320404 
L 283.633201 -264.025491 
L 283.884843 -262.730578 
L 284.160547 -261.435665 
L 284.466508 -260.140752 
L 284.808863 -258.845839 
L 285.193329 -257.550927 
L 285.624829 -256.256014 
L 286.10714 -254.961101 
L 286.64258 -253.666188 
L 287.231756 -252.371275 
L 287.873411 -251.076362 
L 288.564358 -249.781449 
L 289.299535 -248.486536 
L 290.07216 -247.191623 
L 290.873995 -245.89671 
L 291.695683 -244.601798 
L 292.527157 -243.306885 
L 293.358074 -242.011972 
L 294.178253 -240.717059 
L 294.978096 -239.422146 
L 295.748949 -238.127233 
L 296.4834 -236.83232 
L 297.175479 -235.537407 
L 297.82078 -234.242494 
L 298.416471 -232.947581 
L 298.96123 -231.652669 
L 299.455084 -230.357756 
L 299.899204 -229.062843 
L 300.295634 -227.76793 
L 300.647 -226.473017 
L 300.956208 -225.178104 
L 301.226139 -223.883191 
L 301.459376 -222.588278 
L 301.657953 -221.293365 
L 301.823161 -219.998453 
L 301.955404 -218.70354 
L 302.054117 -217.408627 
L 302.117752 -216.113714 
L 302.143831 -214.818801 
L 302.12907 -213.523888 
L 302.069558 -212.228975 
L 301.960994 -210.934062 
L 301.79896 -209.639149 
L 301.579223 -208.344236 
L 301.298042 -207.049324 
L 300.952461 -205.754411 
L 300.540572 -204.459498 
L 300.061733 -203.164585 
L 299.516711 -201.869672 
L 298.907766 -200.574759 
L 298.238643 -199.279846 
L 297.514491 -197.984933 
L 296.741704 -196.69002 
L 295.927708 -195.395107 
L 295.080695 -194.100195 
L 294.209329 -192.805282 
L 293.322448 -191.510369 
L 292.42877 -190.215456 
L 291.536636 -188.920543 
L 290.653783 -187.62563 
L 289.787178 -186.330717 
L 288.9429 -185.035804 
L 288.126087 -183.740891 
L 287.340925 -182.445978 
L 286.590686 -181.151066 
L 285.877802 -179.856153 
L 285.203956 -178.56124 
z
" style="stroke: #000000"/>
    </defs>
    <g clip-path="url(#p06649d0ffe)">
     <use xlink:href="#md26a9e7051" x="0" y="443.152669" style="fill: #87ceeb; stroke: #000000"/>
    </g>
   </g>
   <g id="FillBetweenPolyCollection_4">
    <defs>
     <path id="md5508cb928" d="M 379.60408 -175.934915 
L 363.821245 -175.934915 
L 363.225191 -176.550708 
L 362.611755 -177.166501 
L 361.982985 -177.782294 
L 361.341113 -178.398087 
L 360.688537 -179.01388 
L 360.027802 -179.629673 
L 359.361581 -180.245466 
L 358.692646 -180.861258 
L 358.023851 -181.477051 
L 357.358106 -182.092844 
L 356.698348 -182.708637 
L 356.047523 -183.32443 
L 355.408554 -183.940223 
L 354.784324 -184.556016 
L 354.177645 -185.171809 
L 353.59124 -185.787602 
L 353.027721 -186.403395 
L 352.489562 -187.019188 
L 351.979087 -187.634981 
L 351.498443 -188.250773 
L 351.049588 -188.866566 
L 350.634269 -189.482359 
L 350.254006 -190.098152 
L 349.910078 -190.713945 
L 349.603506 -191.329738 
L 349.33504 -191.945531 
L 349.105142 -192.561324 
L 348.91398 -193.177117 
L 348.761413 -193.79291 
L 348.646982 -194.408703 
L 348.569906 -195.024496 
L 348.529074 -195.640288 
L 348.523052 -196.256081 
L 348.550079 -196.871874 
L 348.608083 -197.487667 
L 348.694692 -198.10346 
L 348.807257 -198.719253 
L 348.94288 -199.335046 
L 349.09845 -199.950839 
L 349.270685 -200.566632 
L 349.456183 -201.182425 
L 349.651476 -201.798218 
L 349.853098 -202.41401 
L 350.057647 -203.029803 
L 350.261856 -203.645596 
L 350.462665 -204.261389 
L 350.657293 -204.877182 
L 350.843299 -205.492975 
L 351.018649 -206.108768 
L 351.181764 -206.724561 
L 351.331565 -207.340354 
L 351.467498 -207.956147 
L 351.589551 -208.57194 
L 351.698255 -209.187733 
L 351.79466 -209.803525 
L 351.880306 -210.419318 
L 351.957172 -211.035111 
L 352.027608 -211.650904 
L 352.094259 -212.266697 
L 352.159979 -212.88249 
L 352.227734 -213.498283 
L 352.300501 -214.114076 
L 352.381176 -214.729869 
L 352.472471 -215.345662 
L 352.576833 -215.961455 
L 352.696363 -216.577248 
L 352.832755 -217.19304 
L 352.987253 -217.808833 
L 353.160619 -218.424626 
L 353.353126 -219.040419 
L 353.56457 -219.656212 
L 353.794298 -220.272005 
L 354.041257 -220.887798 
L 354.304056 -221.503591 
L 354.581039 -222.119384 
L 354.870367 -222.735177 
L 355.17011 -223.35097 
L 355.478331 -223.966762 
L 355.793174 -224.582555 
L 356.11294 -225.198348 
L 356.436159 -225.814141 
L 356.76164 -226.429934 
L 357.088516 -227.045727 
L 357.41626 -227.66152 
L 357.744695 -228.277313 
L 358.073977 -228.893106 
L 358.404569 -229.508899 
L 358.737196 -230.124692 
L 359.072784 -230.740485 
L 359.412401 -231.356277 
L 359.757179 -231.97207 
L 360.108242 -232.587863 
L 360.466631 -233.203656 
L 360.833229 -233.819449 
L 361.208708 -234.435242 
L 361.593465 -235.051035 
L 361.98759 -235.666828 
L 362.39083 -236.282621 
L 362.802585 -236.898414 
L 380.622739 -236.898414 
L 380.622739 -236.898414 
L 381.034495 -236.282621 
L 381.437735 -235.666828 
L 381.831859 -235.051035 
L 382.216617 -234.435242 
L 382.592095 -233.819449 
L 382.958694 -233.203656 
L 383.317082 -232.587863 
L 383.668146 -231.97207 
L 384.012924 -231.356277 
L 384.352541 -230.740485 
L 384.688129 -230.124692 
L 385.020755 -229.508899 
L 385.351348 -228.893106 
L 385.68063 -228.277313 
L 386.009065 -227.66152 
L 386.336809 -227.045727 
L 386.663684 -226.429934 
L 386.989166 -225.814141 
L 387.312385 -225.198348 
L 387.632151 -224.582555 
L 387.946993 -223.966762 
L 388.255214 -223.35097 
L 388.554957 -222.735177 
L 388.844286 -222.119384 
L 389.121269 -221.503591 
L 389.384068 -220.887798 
L 389.631027 -220.272005 
L 389.860755 -219.656212 
L 390.072198 -219.040419 
L 390.264705 -218.424626 
L 390.438071 -217.808833 
L 390.592569 -217.19304 
L 390.728962 -216.577248 
L 390.848492 -215.961455 
L 390.952853 -215.345662 
L 391.044149 -214.729869 
L 391.124823 -214.114076 
L 391.197591 -213.498283 
L 391.265346 -212.88249 
L 391.331066 -212.266697 
L 391.397717 -211.650904 
L 391.468153 -211.035111 
L 391.545018 -210.419318 
L 391.630665 -209.803525 
L 391.72707 -209.187733 
L 391.835774 -208.57194 
L 391.957827 -207.956147 
L 392.09376 -207.340354 
L 392.24356 -206.724561 
L 392.406676 -206.108768 
L 392.582026 -205.492975 
L 392.768032 -204.877182 
L 392.96266 -204.261389 
L 393.163469 -203.645596 
L 393.367678 -203.029803 
L 393.572226 -202.41401 
L 393.773848 -201.798218 
L 393.969142 -201.182425 
L 394.154639 -200.566632 
L 394.326874 -199.950839 
L 394.482444 -199.335046 
L 394.618068 -198.719253 
L 394.730633 -198.10346 
L 394.817242 -197.487667 
L 394.875246 -196.871874 
L 394.902273 -196.256081 
L 394.89625 -195.640288 
L 394.855419 -195.024496 
L 394.778342 -194.408703 
L 394.663911 -193.79291 
L 394.511344 -193.177117 
L 394.320183 -192.561324 
L 394.090285 -191.945531 
L 393.821818 -191.329738 
L 393.515246 -190.713945 
L 393.171319 -190.098152 
L 392.791056 -189.482359 
L 392.375737 -188.866566 
L 391.926882 -188.250773 
L 391.446238 -187.634981 
L 390.935763 -187.019188 
L 390.397604 -186.403395 
L 389.834084 -185.787602 
L 389.24768 -185.171809 
L 388.641001 -184.556016 
L 388.016771 -183.940223 
L 387.377802 -183.32443 
L 386.726977 -182.708637 
L 386.067219 -182.092844 
L 385.401474 -181.477051 
L 384.732679 -180.861258 
L 384.063744 -180.245466 
L 383.397522 -179.629673 
L 382.736788 -179.01388 
L 382.084212 -178.398087 
L 381.44234 -177.782294 
L 380.81357 -177.166501 
L 380.200134 -176.550708 
L 379.60408 -175.934915 
z
" style="stroke: #000000"/>
    </defs>
    <g clip-path="url(#p06649d0ffe)">
     <use xlink:href="#md5508cb928" x="0" y="443.152669" style="fill: #87ceeb; stroke: #000000"/>
    </g>
   </g>
   <g id="matplotlib.axis_1">
    <g id="xtick_1">
     <g id="line2d_1">
      <defs>
       <path id="m76716cb492" d="M 0 0 
L 0 3.5 
" style="stroke: #000000; stroke-width: 0.8"/>
      </defs>
      <g>
       <use xlink:href="#m76716cb492" x="93.437338" y="277.111219" style="stroke: #000000; stroke-width: 0.8"/>
      </g>
     </g>
     <g id="text_1">
      <!-- KNN -->
      <g transform="translate(73.412074 308.819297) rotate(-45) scale(0.12 -0.12)">
       <defs>
        <path id="DejaVuSans-4b" d="M 628 4666 
L 1259 4666 
L 1259 2694 
L 3353 4666 
L 4166 4666 
L 1850 2491 
L 4331 0 
L 3500 0 
L 1259 2247 
L 1259 0 
L 628 0 
L 628 4666 
z
" transform="scale(0.015625)"/>
        <path id="DejaVuSans-4e" d="M 628 4666 
L 1478 4666 
L 3547 763 
L 3547 4666 
L 4159 4666 
L 4159 0 
L 3309 0 
L 1241 3903 
L 1241 0 
L 628 0 
L 628 4666 
z
" transform="scale(0.015625)"/>
       </defs>
       <use xlink:href="#DejaVuSans-4b"/>
       <use xlink:href="#DejaVuSans-4e" transform="translate(65.576172 0)"/>
       <use xlink:href="#DejaVuSans-4e" transform="translate(140.380859 0)"/>
      </g>
     </g>
    </g>
    <g id="xtick_2">
     <g id="line2d_2">
      <g>
       <use xlink:href="#m76716cb492" x="186.195779" y="277.111219" style="stroke: #000000; stroke-width: 0.8"/>
      </g>
     </g>
     <g id="text_2">
      <!-- GNB -->
      <g transform="translate(165.686589 309.303224) rotate(-45) scale(0.12 -0.12)">
       <defs>
        <path id="DejaVuSans-47" d="M 3809 666 
L 3809 1919 
L 2778 1919 
L 2778 2438 
L 4434 2438 
L 4434 434 
Q 4069 175 3628 42 
Q 3188 -91 2688 -91 
Q 1594 -91 976 548 
Q 359 1188 359 2328 
Q 359 3472 976 4111 
Q 1594 4750 2688 4750 
Q 3144 4750 3555 4637 
Q 3966 4525 4313 4306 
L 4313 3634 
Q 3963 3931 3569 4081 
Q 3175 4231 2741 4231 
Q 1884 4231 1454 3753 
Q 1025 3275 1025 2328 
Q 1025 1384 1454 906 
Q 1884 428 2741 428 
Q 3075 428 3337 486 
Q 3600 544 3809 666 
z
" transform="scale(0.015625)"/>
        <path id="DejaVuSans-42" d="M 1259 2228 
L 1259 519 
L 2272 519 
Q 2781 519 3026 730 
Q 3272 941 3272 1375 
Q 3272 1813 3026 2020 
Q 2781 2228 2272 2228 
L 1259 2228 
z
M 1259 4147 
L 1259 2741 
L 2194 2741 
Q 2656 2741 2882 2914 
Q 3109 3088 3109 3444 
Q 3109 3797 2882 3972 
Q 2656 4147 2194 4147 
L 1259 4147 
z
M 628 4666 
L 2241 4666 
Q 2963 4666 3353 4366 
Q 3744 4066 3744 3513 
Q 3744 3084 3544 2831 
Q 3344 2578 2956 2516 
Q 3422 2416 3680 2098 
Q 3938 1781 3938 1306 
Q 3938 681 3513 340 
Q 3088 0 2303 0 
L 628 0 
L 628 4666 
z
" transform="scale(0.015625)"/>
       </defs>
       <use xlink:href="#DejaVuSans-47"/>
       <use xlink:href="#DejaVuSans-4e" transform="translate(77.490234 0)"/>
       <use xlink:href="#DejaVuSans-42" transform="translate(152.294922 0)"/>
      </g>
     </g>
    </g>
    <g id="xtick_3">
     <g id="line2d_3">
      <g>
       <use xlink:href="#m76716cb492" x="278.954221" y="277.111219" style="stroke: #000000; stroke-width: 0.8"/>
      </g>
     </g>
     <g id="text_3">
      <!-- Poly SVM -->
      <g transform="translate(238.600079 329.148175) rotate(-45) scale(0.12 -0.12)">
       <defs>
        <path id="DejaVuSans-50" d="M 1259 4147 
L 1259 2394 
L 2053 2394 
Q 2494 2394 2734 2622 
Q 2975 2850 2975 3272 
Q 2975 3691 2734 3919 
Q 2494 4147 2053 4147 
L 1259 4147 
z
M 628 4666 
L 2053 4666 
Q 2838 4666 3239 4311 
Q 3641 3956 3641 3272 
Q 3641 2581 3239 2228 
Q 2838 1875 2053 1875 
L 1259 1875 
L 1259 0 
L 628 0 
L 628 4666 
z
" transform="scale(0.015625)"/>
        <path id="DejaVuSans-6f" d="M 1959 3097 
Q 1497 3097 1228 2736 
Q 959 2375 959 1747 
Q 959 1119 1226 758 
Q 1494 397 1959 397 
Q 2419 397 2687 759 
Q 2956 1122 2956 1747 
Q 2956 2369 2687 2733 
Q 2419 3097 1959 3097 
z
M 1959 3584 
Q 2709 3584 3137 3096 
Q 3566 2609 3566 1747 
Q 3566 888 3137 398 
Q 2709 -91 1959 -91 
Q 1206 -91 779 398 
Q 353 888 353 1747 
Q 353 2609 779 3096 
Q 1206 3584 1959 3584 
z
" transform="scale(0.015625)"/>
        <path id="DejaVuSans-6c" d="M 603 4863 
L 1178 4863 
L 1178 0 
L 603 0 
L 603 4863 
z
" transform="scale(0.015625)"/>
        <path id="DejaVuSans-79" d="M 2059 -325 
Q 1816 -950 1584 -1140 
Q 1353 -1331 966 -1331 
L 506 -1331 
L 506 -850 
L 844 -850 
Q 1081 -850 1212 -737 
Q 1344 -625 1503 -206 
L 1606 56 
L 191 3500 
L 800 3500 
L 1894 763 
L 2988 3500 
L 3597 3500 
L 2059 -325 
z
" transform="scale(0.015625)"/>
        <path id="DejaVuSans-20" transform="scale(0.015625)"/>
        <path id="DejaVuSans-53" d="M 3425 4513 
L 3425 3897 
Q 3066 4069 2747 4153 
Q 2428 4238 2131 4238 
Q 1616 4238 1336 4038 
Q 1056 3838 1056 3469 
Q 1056 3159 1242 3001 
Q 1428 2844 1947 2747 
L 2328 2669 
Q 3034 2534 3370 2195 
Q 3706 1856 3706 1288 
Q 3706 609 3251 259 
Q 2797 -91 1919 -91 
Q 1588 -91 1214 -16 
Q 841 59 441 206 
L 441 856 
Q 825 641 1194 531 
Q 1563 422 1919 422 
Q 2459 422 2753 634 
Q 3047 847 3047 1241 
Q 3047 1584 2836 1778 
Q 2625 1972 2144 2069 
L 1759 2144 
Q 1053 2284 737 2584 
Q 422 2884 422 3419 
Q 422 4038 858 4394 
Q 1294 4750 2059 4750 
Q 2388 4750 2728 4690 
Q 3069 4631 3425 4513 
z
" transform="scale(0.015625)"/>
        <path id="DejaVuSans-56" d="M 1831 0 
L 50 4666 
L 709 4666 
L 2188 738 
L 3669 4666 
L 4325 4666 
L 2547 0 
L 1831 0 
z
" transform="scale(0.015625)"/>
        <path id="DejaVuSans-4d" d="M 628 4666 
L 1569 4666 
L 2759 1491 
L 3956 4666 
L 4897 4666 
L 4897 0 
L 4281 0 
L 4281 4097 
L 3078 897 
L 2444 897 
L 1241 4097 
L 1241 0 
L 628 0 
L 628 4666 
z
" transform="scale(0.015625)"/>
       </defs>
       <use xlink:href="#DejaVuSans-50"/>
       <use xlink:href="#DejaVuSans-6f" transform="translate(56.677734 0)"/>
       <use xlink:href="#DejaVuSans-6c" transform="translate(117.859375 0)"/>
       <use xlink:href="#DejaVuSans-79" transform="translate(145.642578 0)"/>
       <use xlink:href="#DejaVuSans-20" transform="translate(204.822266 0)"/>
       <use xlink:href="#DejaVuSans-53" transform="translate(236.609375 0)"/>
       <use xlink:href="#DejaVuSans-56" transform="translate(300.085938 0)"/>
       <use xlink:href="#DejaVuSans-4d" transform="translate(368.494141 0)"/>
      </g>
     </g>
    </g>
    <g id="xtick_4">
     <g id="line2d_4">
      <g>
       <use xlink:href="#m76716cb492" x="371.712662" y="277.111219" style="stroke: #000000; stroke-width: 0.8"/>
      </g>
     </g>
     <g id="text_4">
      <!-- RBF SVM -->
      <g transform="translate(332.140757 328.365939) rotate(-45) scale(0.12 -0.12)">
       <defs>
        <path id="DejaVuSans-52" d="M 2841 2188 
Q 3044 2119 3236 1894 
Q 3428 1669 3622 1275 
L 4263 0 
L 3584 0 
L 2988 1197 
Q 2756 1666 2539 1819 
Q 2322 1972 1947 1972 
L 1259 1972 
L 1259 0 
L 628 0 
L 628 4666 
L 2053 4666 
Q 2853 4666 3247 4331 
Q 3641 3997 3641 3322 
Q 3641 2881 3436 2590 
Q 3231 2300 2841 2188 
z
M 1259 4147 
L 1259 2491 
L 2053 2491 
Q 2509 2491 2742 2702 
Q 2975 2913 2975 3322 
Q 2975 3731 2742 3939 
Q 2509 4147 2053 4147 
L 1259 4147 
z
" transform="scale(0.015625)"/>
        <path id="DejaVuSans-46" d="M 628 4666 
L 3309 4666 
L 3309 4134 
L 1259 4134 
L 1259 2759 
L 3109 2759 
L 3109 2228 
L 1259 2228 
L 1259 0 
L 628 0 
L 628 4666 
z
" transform="scale(0.015625)"/>
       </defs>
       <use xlink:href="#DejaVuSans-52"/>
       <use xlink:href="#DejaVuSans-42" transform="translate(69.482422 0)"/>
       <use xlink:href="#DejaVuSans-46" transform="translate(138.085938 0)"/>
       <use xlink:href="#DejaVuSans-20" transform="translate(195.605469 0)"/>
       <use xlink:href="#DejaVuSans-53" transform="translate(227.392578 0)"/>
       <use xlink:href="#DejaVuSans-56" transform="translate(290.869141 0)"/>
       <use xlink:href="#DejaVuSans-4d" transform="translate(359.277344 0)"/>
      </g>
     </g>
    </g>
   </g>
   <g id="matplotlib.axis_2">
    <g id="ytick_1">
     <g id="line2d_5">
      <defs>
       <path id="m91e6825097" d="M 0 0 
L -3.5 0 
" style="stroke: #000000; stroke-width: 0.8"/>
      </defs>
      <g>
       <use xlink:href="#m91e6825097" x="54.015" y="240.406115" style="stroke: #000000; stroke-width: 0.8"/>
      </g>
     </g>
     <g id="text_5">
      <!-- 0.10 -->
      <g transform="translate(24.749375 244.205334) scale(0.1 -0.1)">
       <defs>
        <path id="DejaVuSans-30" d="M 2034 4250 
Q 1547 4250 1301 3770 
Q 1056 3291 1056 2328 
Q 1056 1369 1301 889 
Q 1547 409 2034 409 
Q 2525 409 2770 889 
Q 3016 1369 3016 2328 
Q 3016 3291 2770 3770 
Q 2525 4250 2034 4250 
z
M 2034 4750 
Q 2819 4750 3233 4129 
Q 3647 3509 3647 2328 
Q 3647 1150 3233 529 
Q 2819 -91 2034 -91 
Q 1250 -91 836 529 
Q 422 1150 422 2328 
Q 422 3509 836 4129 
Q 1250 4750 2034 4750 
z
" transform="scale(0.015625)"/>
        <path id="DejaVuSans-2e" d="M 684 794 
L 1344 794 
L 1344 0 
L 684 0 
L 684 794 
z
" transform="scale(0.015625)"/>
        <path id="DejaVuSans-31" d="M 794 531 
L 1825 531 
L 1825 4091 
L 703 3866 
L 703 4441 
L 1819 4666 
L 2450 4666 
L 2450 531 
L 3481 531 
L 3481 0 
L 794 0 
L 794 531 
z
" transform="scale(0.015625)"/>
       </defs>
       <use xlink:href="#DejaVuSans-30"/>
       <use xlink:href="#DejaVuSans-2e" transform="translate(63.623047 0)"/>
       <use xlink:href="#DejaVuSans-31" transform="translate(95.410156 0)"/>
       <use xlink:href="#DejaVuSans-30" transform="translate(159.033203 0)"/>
      </g>
     </g>
    </g>
    <g id="ytick_2">
     <g id="line2d_6">
      <g>
       <use xlink:href="#m91e6825097" x="54.015" y="194.524736" style="stroke: #000000; stroke-width: 0.8"/>
      </g>
     </g>
     <g id="text_6">
      <!-- 0.15 -->
      <g transform="translate(24.749375 198.323955) scale(0.1 -0.1)">
       <defs>
        <path id="DejaVuSans-35" d="M 691 4666 
L 3169 4666 
L 3169 4134 
L 1269 4134 
L 1269 2991 
Q 1406 3038 1543 3061 
Q 1681 3084 1819 3084 
Q 2600 3084 3056 2656 
Q 3513 2228 3513 1497 
Q 3513 744 3044 326 
Q 2575 -91 1722 -91 
Q 1428 -91 1123 -41 
Q 819 9 494 109 
L 494 744 
Q 775 591 1075 516 
Q 1375 441 1709 441 
Q 2250 441 2565 725 
Q 2881 1009 2881 1497 
Q 2881 1984 2565 2268 
Q 2250 2553 1709 2553 
Q 1456 2553 1204 2497 
Q 953 2441 691 2322 
L 691 4666 
z
" transform="scale(0.015625)"/>
       </defs>
       <use xlink:href="#DejaVuSans-30"/>
       <use xlink:href="#DejaVuSans-2e" transform="translate(63.623047 0)"/>
       <use xlink:href="#DejaVuSans-31" transform="translate(95.410156 0)"/>
       <use xlink:href="#DejaVuSans-35" transform="translate(159.033203 0)"/>
      </g>
     </g>
    </g>
    <g id="ytick_3">
     <g id="line2d_7">
      <g>
       <use xlink:href="#m91e6825097" x="54.015" y="148.643357" style="stroke: #000000; stroke-width: 0.8"/>
      </g>
     </g>
     <g id="text_7">
      <!-- 0.20 -->
      <g transform="translate(24.749375 152.442575) scale(0.1 -0.1)">
       <defs>
        <path id="DejaVuSans-32" d="M 1228 531 
L 3431 531 
L 3431 0 
L 469 0 
L 469 531 
Q 828 903 1448 1529 
Q 2069 2156 2228 2338 
Q 2531 2678 2651 2914 
Q 2772 3150 2772 3378 
Q 2772 3750 2511 3984 
Q 2250 4219 1831 4219 
Q 1534 4219 1204 4116 
Q 875 4013 500 3803 
L 500 4441 
Q 881 4594 1212 4672 
Q 1544 4750 1819 4750 
Q 2544 4750 2975 4387 
Q 3406 4025 3406 3419 
Q 3406 3131 3298 2873 
Q 3191 2616 2906 2266 
Q 2828 2175 2409 1742 
Q 1991 1309 1228 531 
z
" transform="scale(0.015625)"/>
       </defs>
       <use xlink:href="#DejaVuSans-30"/>
       <use xlink:href="#DejaVuSans-2e" transform="translate(63.623047 0)"/>
       <use xlink:href="#DejaVuSans-32" transform="translate(95.410156 0)"/>
       <use xlink:href="#DejaVuSans-30" transform="translate(159.033203 0)"/>
      </g>
     </g>
    </g>
    <g id="ytick_4">
     <g id="line2d_8">
      <g>
       <use xlink:href="#m91e6825097" x="54.015" y="102.761977" style="stroke: #000000; stroke-width: 0.8"/>
      </g>
     </g>
     <g id="text_8">
      <!-- 0.25 -->
      <g transform="translate(24.749375 106.561196) scale(0.1 -0.1)">
       <use xlink:href="#DejaVuSans-30"/>
       <use xlink:href="#DejaVuSans-2e" transform="translate(63.623047 0)"/>
       <use xlink:href="#DejaVuSans-32" transform="translate(95.410156 0)"/>
       <use xlink:href="#DejaVuSans-35" transform="translate(159.033203 0)"/>
      </g>
     </g>
    </g>
    <g id="ytick_5">
     <g id="line2d_9">
      <g>
       <use xlink:href="#m91e6825097" x="54.015" y="56.880598" style="stroke: #000000; stroke-width: 0.8"/>
      </g>
     </g>
     <g id="text_9">
      <!-- 0.30 -->
      <g transform="translate(24.749375 60.679817) scale(0.1 -0.1)">
       <defs>
        <path id="DejaVuSans-33" d="M 2597 2516 
Q 3050 2419 3304 2112 
Q 3559 1806 3559 1356 
Q 3559 666 3084 287 
Q 2609 -91 1734 -91 
Q 1441 -91 1130 -33 
Q 819 25 488 141 
L 488 750 
Q 750 597 1062 519 
Q 1375 441 1716 441 
Q 2309 441 2620 675 
Q 2931 909 2931 1356 
Q 2931 1769 2642 2001 
Q 2353 2234 1838 2234 
L 1294 2234 
L 1294 2753 
L 1863 2753 
Q 2328 2753 2575 2939 
Q 2822 3125 2822 3475 
Q 2822 3834 2567 4026 
Q 2313 4219 1838 4219 
Q 1578 4219 1281 4162 
Q 984 4106 628 3988 
L 628 4550 
Q 988 4650 1302 4700 
Q 1616 4750 1894 4750 
Q 2613 4750 3031 4423 
Q 3450 4097 3450 3541 
Q 3450 3153 3228 2886 
Q 3006 2619 2597 2516 
z
" transform="scale(0.015625)"/>
       </defs>
       <use xlink:href="#DejaVuSans-30"/>
       <use xlink:href="#DejaVuSans-2e" transform="translate(63.623047 0)"/>
       <use xlink:href="#DejaVuSans-33" transform="translate(95.410156 0)"/>
       <use xlink:href="#DejaVuSans-30" transform="translate(159.033203 0)"/>
      </g>
     </g>
    </g>
    <g id="ytick_6">
     <g id="line2d_10">
      <g>
       <use xlink:href="#m91e6825097" x="54.015" y="10.999219" style="stroke: #000000; stroke-width: 0.8"/>
      </g>
     </g>
     <g id="text_10">
      <!-- 0.35 -->
      <g transform="translate(24.749375 14.798437) scale(0.1 -0.1)">
       <use xlink:href="#DejaVuSans-30"/>
       <use xlink:href="#DejaVuSans-2e" transform="translate(63.623047 0)"/>
       <use xlink:href="#DejaVuSans-33" transform="translate(95.410156 0)"/>
       <use xlink:href="#DejaVuSans-35" transform="translate(159.033203 0)"/>
      </g>
     </g>
    </g>
    <g id="ytick_7">
     <g id="line2d_11">
      <defs>
       <path id="m4becd6ff48" d="M 0 0 
L -2 0 
" style="stroke: #000000; stroke-width: 0.6"/>
      </defs>
      <g>
       <use xlink:href="#m4becd6ff48" x="54.015" y="277.111219" style="stroke: #000000; stroke-width: 0.6"/>
      </g>
     </g>
    </g>
    <g id="ytick_8">
     <g id="line2d_12">
      <g>
       <use xlink:href="#m4becd6ff48" x="54.015" y="267.934943" style="stroke: #000000; stroke-width: 0.6"/>
      </g>
     </g>
    </g>
    <g id="ytick_9">
     <g id="line2d_13">
      <g>
       <use xlink:href="#m4becd6ff48" x="54.015" y="258.758667" style="stroke: #000000; stroke-width: 0.6"/>
      </g>
     </g>
    </g>
    <g id="ytick_10">
     <g id="line2d_14">
      <g>
       <use xlink:href="#m4becd6ff48" x="54.015" y="249.582391" style="stroke: #000000; stroke-width: 0.6"/>
      </g>
     </g>
    </g>
    <g id="ytick_11">
     <g id="line2d_15">
      <g>
       <use xlink:href="#m4becd6ff48" x="54.015" y="231.229839" style="stroke: #000000; stroke-width: 0.6"/>
      </g>
     </g>
    </g>
    <g id="ytick_12">
     <g id="line2d_16">
      <g>
       <use xlink:href="#m4becd6ff48" x="54.015" y="222.053564" style="stroke: #000000; stroke-width: 0.6"/>
      </g>
     </g>
    </g>
    <g id="ytick_13">
     <g id="line2d_17">
      <g>
       <use xlink:href="#m4becd6ff48" x="54.015" y="212.877288" style="stroke: #000000; stroke-width: 0.6"/>
      </g>
     </g>
    </g>
    <g id="ytick_14">
     <g id="line2d_18">
      <g>
       <use xlink:href="#m4becd6ff48" x="54.015" y="203.701012" style="stroke: #000000; stroke-width: 0.6"/>
      </g>
     </g>
    </g>
    <g id="ytick_15">
     <g id="line2d_19">
      <g>
       <use xlink:href="#m4becd6ff48" x="54.015" y="185.34846" style="stroke: #000000; stroke-width: 0.6"/>
      </g>
     </g>
    </g>
    <g id="ytick_16">
     <g id="line2d_20">
      <g>
       <use xlink:href="#m4becd6ff48" x="54.015" y="176.172184" style="stroke: #000000; stroke-width: 0.6"/>
      </g>
     </g>
    </g>
    <g id="ytick_17">
     <g id="line2d_21">
      <g>
       <use xlink:href="#m4becd6ff48" x="54.015" y="166.995908" style="stroke: #000000; stroke-width: 0.6"/>
      </g>
     </g>
    </g>
    <g id="ytick_18">
     <g id="line2d_22">
      <g>
       <use xlink:href="#m4becd6ff48" x="54.015" y="157.819633" style="stroke: #000000; stroke-width: 0.6"/>
      </g>
     </g>
    </g>
    <g id="ytick_19">
     <g id="line2d_23">
      <g>
       <use xlink:href="#m4becd6ff48" x="54.015" y="139.467081" style="stroke: #000000; stroke-width: 0.6"/>
      </g>
     </g>
    </g>
    <g id="ytick_20">
     <g id="line2d_24">
      <g>
       <use xlink:href="#m4becd6ff48" x="54.015" y="130.290805" style="stroke: #000000; stroke-width: 0.6"/>
      </g>
     </g>
    </g>
    <g id="ytick_21">
     <g id="line2d_25">
      <g>
       <use xlink:href="#m4becd6ff48" x="54.015" y="121.114529" style="stroke: #000000; stroke-width: 0.6"/>
      </g>
     </g>
    </g>
    <g id="ytick_22">
     <g id="line2d_26">
      <g>
       <use xlink:href="#m4becd6ff48" x="54.015" y="111.938253" style="stroke: #000000; stroke-width: 0.6"/>
      </g>
     </g>
    </g>
    <g id="ytick_23">
     <g id="line2d_27">
      <g>
       <use xlink:href="#m4becd6ff48" x="54.015" y="93.585702" style="stroke: #000000; stroke-width: 0.6"/>
      </g>
     </g>
    </g>
    <g id="ytick_24">
     <g id="line2d_28">
      <g>
       <use xlink:href="#m4becd6ff48" x="54.015" y="84.409426" style="stroke: #000000; stroke-width: 0.6"/>
      </g>
     </g>
    </g>
    <g id="ytick_25">
     <g id="line2d_29">
      <g>
       <use xlink:href="#m4becd6ff48" x="54.015" y="75.23315" style="stroke: #000000; stroke-width: 0.6"/>
      </g>
     </g>
    </g>
    <g id="ytick_26">
     <g id="line2d_30">
      <g>
       <use xlink:href="#m4becd6ff48" x="54.015" y="66.056874" style="stroke: #000000; stroke-width: 0.6"/>
      </g>
     </g>
    </g>
    <g id="ytick_27">
     <g id="line2d_31">
      <g>
       <use xlink:href="#m4becd6ff48" x="54.015" y="47.704322" style="stroke: #000000; stroke-width: 0.6"/>
      </g>
     </g>
    </g>
    <g id="ytick_28">
     <g id="line2d_32">
      <g>
       <use xlink:href="#m4becd6ff48" x="54.015" y="38.528046" style="stroke: #000000; stroke-width: 0.6"/>
      </g>
     </g>
    </g>
    <g id="ytick_29">
     <g id="line2d_33">
      <g>
       <use xlink:href="#m4becd6ff48" x="54.015" y="29.35177" style="stroke: #000000; stroke-width: 0.6"/>
      </g>
     </g>
    </g>
    <g id="ytick_30">
     <g id="line2d_34">
      <g>
       <use xlink:href="#m4becd6ff48" x="54.015" y="20.175495" style="stroke: #000000; stroke-width: 0.6"/>
      </g>
     </g>
    </g>
    <g id="text_11">
     <!-- Brier Score Loss -->
     <g transform="translate(17.837813 200.271781) rotate(-90) scale(0.14 -0.14)">
      <defs>
       <path id="DejaVuSans-72" d="M 2631 2963 
Q 2534 3019 2420 3045 
Q 2306 3072 2169 3072 
Q 1681 3072 1420 2755 
Q 1159 2438 1159 1844 
L 1159 0 
L 581 0 
L 581 3500 
L 1159 3500 
L 1159 2956 
Q 1341 3275 1631 3429 
Q 1922 3584 2338 3584 
Q 2397 3584 2469 3576 
Q 2541 3569 2628 3553 
L 2631 2963 
z
" transform="scale(0.015625)"/>
       <path id="DejaVuSans-69" d="M 603 3500 
L 1178 3500 
L 1178 0 
L 603 0 
L 603 3500 
z
M 603 4863 
L 1178 4863 
L 1178 4134 
L 603 4134 
L 603 4863 
z
" transform="scale(0.015625)"/>
       <path id="DejaVuSans-65" d="M 3597 1894 
L 3597 1613 
L 953 1613 
Q 991 1019 1311 708 
Q 1631 397 2203 397 
Q 2534 397 2845 478 
Q 3156 559 3463 722 
L 3463 178 
Q 3153 47 2828 -22 
Q 2503 -91 2169 -91 
Q 1331 -91 842 396 
Q 353 884 353 1716 
Q 353 2575 817 3079 
Q 1281 3584 2069 3584 
Q 2775 3584 3186 3129 
Q 3597 2675 3597 1894 
z
M 3022 2063 
Q 3016 2534 2758 2815 
Q 2500 3097 2075 3097 
Q 1594 3097 1305 2825 
Q 1016 2553 972 2059 
L 3022 2063 
z
" transform="scale(0.015625)"/>
       <path id="DejaVuSans-63" d="M 3122 3366 
L 3122 2828 
Q 2878 2963 2633 3030 
Q 2388 3097 2138 3097 
Q 1578 3097 1268 2742 
Q 959 2388 959 1747 
Q 959 1106 1268 751 
Q 1578 397 2138 397 
Q 2388 397 2633 464 
Q 2878 531 3122 666 
L 3122 134 
Q 2881 22 2623 -34 
Q 2366 -91 2075 -91 
Q 1284 -91 818 406 
Q 353 903 353 1747 
Q 353 2603 823 3093 
Q 1294 3584 2113 3584 
Q 2378 3584 2631 3529 
Q 2884 3475 3122 3366 
z
" transform="scale(0.015625)"/>
       <path id="DejaVuSans-4c" d="M 628 4666 
L 1259 4666 
L 1259 531 
L 3531 531 
L 3531 0 
L 628 0 
L 628 4666 
z
" transform="scale(0.015625)"/>
       <path id="DejaVuSans-73" d="M 2834 3397 
L 2834 2853 
Q 2591 2978 2328 3040 
Q 2066 3103 1784 3103 
Q 1356 3103 1142 2972 
Q 928 2841 928 2578 
Q 928 2378 1081 2264 
Q 1234 2150 1697 2047 
L 1894 2003 
Q 2506 1872 2764 1633 
Q 3022 1394 3022 966 
Q 3022 478 2636 193 
Q 2250 -91 1575 -91 
Q 1294 -91 989 -36 
Q 684 19 347 128 
L 347 722 
Q 666 556 975 473 
Q 1284 391 1588 391 
Q 1994 391 2212 530 
Q 2431 669 2431 922 
Q 2431 1156 2273 1281 
Q 2116 1406 1581 1522 
L 1381 1569 
Q 847 1681 609 1914 
Q 372 2147 372 2553 
Q 372 3047 722 3315 
Q 1072 3584 1716 3584 
Q 2034 3584 2315 3537 
Q 2597 3491 2834 3397 
z
" transform="scale(0.015625)"/>
      </defs>
      <use xlink:href="#DejaVuSans-42"/>
      <use xlink:href="#DejaVuSans-72" transform="translate(68.603516 0)"/>
      <use xlink:href="#DejaVuSans-69" transform="translate(109.716797 0)"/>
      <use xlink:href="#DejaVuSans-65" transform="translate(137.5 0)"/>
      <use xlink:href="#DejaVuSans-72" transform="translate(199.023438 0)"/>
      <use xlink:href="#DejaVuSans-20" transform="translate(240.136719 0)"/>
      <use xlink:href="#DejaVuSans-53" transform="translate(271.923828 0)"/>
      <use xlink:href="#DejaVuSans-63" transform="translate(335.400391 0)"/>
      <use xlink:href="#DejaVuSans-6f" transform="translate(390.380859 0)"/>
      <use xlink:href="#DejaVuSans-72" transform="translate(451.5625 0)"/>
      <use xlink:href="#DejaVuSans-65" transform="translate(490.425781 0)"/>
      <use xlink:href="#DejaVuSans-20" transform="translate(551.949219 0)"/>
      <use xlink:href="#DejaVuSans-4c" transform="translate(583.736328 0)"/>
      <use xlink:href="#DejaVuSans-6f" transform="translate(637.699219 0)"/>
      <use xlink:href="#DejaVuSans-73" transform="translate(698.880859 0)"/>
      <use xlink:href="#DejaVuSans-73" transform="translate(750.980469 0)"/>
     </g>
    </g>
   </g>
   <g id="LineCollection_1">
    <path d="M 93.437338 153.602476 
L 93.437338 110.610607 
" clip-path="url(#p06649d0ffe)" style="fill: none; stroke: #000000; stroke-width: 5"/>
    <path d="M 186.195779 207.357834 
L 186.195779 181.504568 
" clip-path="url(#p06649d0ffe)" style="fill: none; stroke: #000000; stroke-width: 5"/>
    <path d="M 278.954221 238.839924 
L 278.954221 205.886614 
" clip-path="url(#p06649d0ffe)" style="fill: none; stroke: #000000; stroke-width: 5"/>
    <path d="M 371.712662 250.142673 
L 371.712662 224.858208 
" clip-path="url(#p06649d0ffe)" style="fill: none; stroke: #000000; stroke-width: 5"/>
   </g>
   <g id="line2d_35">
    <path clip-path="url(#p06649d0ffe)" style="fill: none; stroke: #f08080; stroke-width: 10; stroke-linecap: square"/>
   </g>
   <g id="line2d_36">
    <path clip-path="url(#p06649d0ffe)" style="fill: none; stroke: #87ceeb; stroke-width: 10; stroke-linecap: square"/>
   </g>
   <g id="patch_3">
    <path d="M 54.015 277.111219 
L 54.015 10.999219 
" style="fill: none; stroke: #000000; stroke-width: 0.8; stroke-linejoin: miter; stroke-linecap: square"/>
   </g>
   <g id="patch_4">
    <path d="M 411.135 277.111219 
L 411.135 10.999219 
" style="fill: none; stroke: #000000; stroke-width: 0.8; stroke-linejoin: miter; stroke-linecap: square"/>
   </g>
   <g id="patch_5">
    <path d="M 54.015 277.111219 
L 411.135 277.111219 
" style="fill: none; stroke: #000000; stroke-width: 0.8; stroke-linejoin: miter; stroke-linecap: square"/>
   </g>
   <g id="patch_6">
    <path d="M 54.015 10.999219 
L 411.135 10.999219 
" style="fill: none; stroke: #000000; stroke-width: 0.8; stroke-linejoin: miter; stroke-linecap: square"/>
   </g>
   <g id="PathCollection_1">
    <defs>
     <path id="m3c94753755" d="M 0 2.738613 
C 0.726289 2.738613 1.422928 2.450055 1.936492 1.936492 
C 2.450055 1.422928 2.738613 0.726289 2.738613 0 
C 2.738613 -0.726289 2.450055 -1.422928 1.936492 -1.936492 
C 1.422928 -2.450055 0.726289 -2.738613 0 -2.738613 
C -0.726289 -2.738613 -1.422928 -2.450055 -1.936492 -1.936492 
C -2.450055 -1.422928 -2.738613 -0.726289 -2.738613 0 
C -2.738613 0.726289 -2.450055 1.422928 -1.936492 1.936492 
C -1.422928 2.450055 -0.726289 2.738613 0 2.738613 
z
" style="stroke: #000000"/>
    </defs>
    <g clip-path="url(#p06649d0ffe)">
     <use xlink:href="#m3c94753755" x="93.437338" y="134.366375" style="fill: #ffffff; stroke: #000000"/>
     <use xlink:href="#m3c94753755" x="186.195779" y="195.136973" style="fill: #ffffff; stroke: #000000"/>
     <use xlink:href="#m3c94753755" x="278.954221" y="224.576803" style="fill: #ffffff; stroke: #000000"/>
     <use xlink:href="#m3c94753755" x="371.712662" y="239.965099" style="fill: #ffffff; stroke: #000000"/>
    </g>
   </g>
   <g id="legend_1">
    <g id="patch_7">
     <path d="M 56.415 435.952669 
L 237.324375 435.952669 
Q 239.724375 435.952669 239.724375 433.552669 
L 239.724375 372.650419 
Q 239.724375 370.250419 237.324375 370.250419 
L 56.415 370.250419 
Q 54.015 370.250419 54.015 372.650419 
L 54.015 433.552669 
Q 54.015 435.952669 56.415 435.952669 
z
" style="fill: #ffffff; stroke: #cccccc; stroke-linejoin: miter"/>
    </g>
    <g id="line2d_37">
     <path d="M 58.815 387.935044 
L 70.815 387.935044 
L 82.815 387.935044 
" style="fill: none; stroke: #f08080; stroke-width: 10; stroke-linecap: square"/>
    </g>
    <g id="text_12">
     <!-- Unweighted Supervised -->
     <g transform="translate(92.415 384.168544) scale(0.12 -0.12)">
      <defs>
       <path id="DejaVuSans-55" d="M 556 4666 
L 1191 4666 
L 1191 1831 
Q 1191 1081 1462 751 
Q 1734 422 2344 422 
Q 2950 422 3222 751 
Q 3494 1081 3494 1831 
L 3494 4666 
L 4128 4666 
L 4128 1753 
Q 4128 841 3676 375 
Q 3225 -91 2344 -91 
Q 1459 -91 1007 375 
Q 556 841 556 1753 
L 556 4666 
z
" transform="scale(0.015625)"/>
       <path id="DejaVuSans-6e" d="M 3513 2113 
L 3513 0 
L 2938 0 
L 2938 2094 
Q 2938 2591 2744 2837 
Q 2550 3084 2163 3084 
Q 1697 3084 1428 2787 
Q 1159 2491 1159 1978 
L 1159 0 
L 581 0 
L 581 3500 
L 1159 3500 
L 1159 2956 
Q 1366 3272 1645 3428 
Q 1925 3584 2291 3584 
Q 2894 3584 3203 3211 
Q 3513 2838 3513 2113 
z
" transform="scale(0.015625)"/>
       <path id="DejaVuSans-77" d="M 269 3500 
L 844 3500 
L 1563 769 
L 2278 3500 
L 2956 3500 
L 3675 769 
L 4391 3500 
L 4966 3500 
L 4050 0 
L 3372 0 
L 2619 2869 
L 1863 0 
L 1184 0 
L 269 3500 
z
" transform="scale(0.015625)"/>
       <path id="DejaVuSans-67" d="M 2906 1791 
Q 2906 2416 2648 2759 
Q 2391 3103 1925 3103 
Q 1463 3103 1205 2759 
Q 947 2416 947 1791 
Q 947 1169 1205 825 
Q 1463 481 1925 481 
Q 2391 481 2648 825 
Q 2906 1169 2906 1791 
z
M 3481 434 
Q 3481 -459 3084 -895 
Q 2688 -1331 1869 -1331 
Q 1566 -1331 1297 -1286 
Q 1028 -1241 775 -1147 
L 775 -588 
Q 1028 -725 1275 -790 
Q 1522 -856 1778 -856 
Q 2344 -856 2625 -561 
Q 2906 -266 2906 331 
L 2906 616 
Q 2728 306 2450 153 
Q 2172 0 1784 0 
Q 1141 0 747 490 
Q 353 981 353 1791 
Q 353 2603 747 3093 
Q 1141 3584 1784 3584 
Q 2172 3584 2450 3431 
Q 2728 3278 2906 2969 
L 2906 3500 
L 3481 3500 
L 3481 434 
z
" transform="scale(0.015625)"/>
       <path id="DejaVuSans-68" d="M 3513 2113 
L 3513 0 
L 2938 0 
L 2938 2094 
Q 2938 2591 2744 2837 
Q 2550 3084 2163 3084 
Q 1697 3084 1428 2787 
Q 1159 2491 1159 1978 
L 1159 0 
L 581 0 
L 581 4863 
L 1159 4863 
L 1159 2956 
Q 1366 3272 1645 3428 
Q 1925 3584 2291 3584 
Q 2894 3584 3203 3211 
Q 3513 2838 3513 2113 
z
" transform="scale(0.015625)"/>
       <path id="DejaVuSans-74" d="M 1172 4494 
L 1172 3500 
L 2356 3500 
L 2356 3053 
L 1172 3053 
L 1172 1153 
Q 1172 725 1289 603 
Q 1406 481 1766 481 
L 2356 481 
L 2356 0 
L 1766 0 
Q 1100 0 847 248 
Q 594 497 594 1153 
L 594 3053 
L 172 3053 
L 172 3500 
L 594 3500 
L 594 4494 
L 1172 4494 
z
" transform="scale(0.015625)"/>
       <path id="DejaVuSans-64" d="M 2906 2969 
L 2906 4863 
L 3481 4863 
L 3481 0 
L 2906 0 
L 2906 525 
Q 2725 213 2448 61 
Q 2172 -91 1784 -91 
Q 1150 -91 751 415 
Q 353 922 353 1747 
Q 353 2572 751 3078 
Q 1150 3584 1784 3584 
Q 2172 3584 2448 3432 
Q 2725 3281 2906 2969 
z
M 947 1747 
Q 947 1113 1208 752 
Q 1469 391 1925 391 
Q 2381 391 2643 752 
Q 2906 1113 2906 1747 
Q 2906 2381 2643 2742 
Q 2381 3103 1925 3103 
Q 1469 3103 1208 2742 
Q 947 2381 947 1747 
z
" transform="scale(0.015625)"/>
       <path id="DejaVuSans-75" d="M 544 1381 
L 544 3500 
L 1119 3500 
L 1119 1403 
Q 1119 906 1312 657 
Q 1506 409 1894 409 
Q 2359 409 2629 706 
Q 2900 1003 2900 1516 
L 2900 3500 
L 3475 3500 
L 3475 0 
L 2900 0 
L 2900 538 
Q 2691 219 2414 64 
Q 2138 -91 1772 -91 
Q 1169 -91 856 284 
Q 544 659 544 1381 
z
M 1991 3584 
L 1991 3584 
z
" transform="scale(0.015625)"/>
       <path id="DejaVuSans-70" d="M 1159 525 
L 1159 -1331 
L 581 -1331 
L 581 3500 
L 1159 3500 
L 1159 2969 
Q 1341 3281 1617 3432 
Q 1894 3584 2278 3584 
Q 2916 3584 3314 3078 
Q 3713 2572 3713 1747 
Q 3713 922 3314 415 
Q 2916 -91 2278 -91 
Q 1894 -91 1617 61 
Q 1341 213 1159 525 
z
M 3116 1747 
Q 3116 2381 2855 2742 
Q 2594 3103 2138 3103 
Q 1681 3103 1420 2742 
Q 1159 2381 1159 1747 
Q 1159 1113 1420 752 
Q 1681 391 2138 391 
Q 2594 391 2855 752 
Q 3116 1113 3116 1747 
z
" transform="scale(0.015625)"/>
       <path id="DejaVuSans-76" d="M 191 3500 
L 800 3500 
L 1894 563 
L 2988 3500 
L 3597 3500 
L 2284 0 
L 1503 0 
L 191 3500 
z
" transform="scale(0.015625)"/>
      </defs>
      <use xlink:href="#DejaVuSans-55"/>
      <use xlink:href="#DejaVuSans-6e" transform="translate(73.193359 0)"/>
      <use xlink:href="#DejaVuSans-77" transform="translate(136.572266 0)"/>
      <use xlink:href="#DejaVuSans-65" transform="translate(218.359375 0)"/>
      <use xlink:href="#DejaVuSans-69" transform="translate(279.882812 0)"/>
      <use xlink:href="#DejaVuSans-67" transform="translate(307.666016 0)"/>
      <use xlink:href="#DejaVuSans-68" transform="translate(371.142578 0)"/>
      <use xlink:href="#DejaVuSans-74" transform="translate(434.521484 0)"/>
      <use xlink:href="#DejaVuSans-65" transform="translate(473.730469 0)"/>
      <use xlink:href="#DejaVuSans-64" transform="translate(535.253906 0)"/>
      <use xlink:href="#DejaVuSans-20" transform="translate(598.730469 0)"/>
      <use xlink:href="#DejaVuSans-53" transform="translate(630.517578 0)"/>
      <use xlink:href="#DejaVuSans-75" transform="translate(693.994141 0)"/>
      <use xlink:href="#DejaVuSans-70" transform="translate(757.373047 0)"/>
      <use xlink:href="#DejaVuSans-65" transform="translate(820.849609 0)"/>
      <use xlink:href="#DejaVuSans-72" transform="translate(882.373047 0)"/>
      <use xlink:href="#DejaVuSans-76" transform="translate(923.486328 0)"/>
      <use xlink:href="#DejaVuSans-69" transform="translate(982.666016 0)"/>
      <use xlink:href="#DejaVuSans-73" transform="translate(1010.449219 0)"/>
      <use xlink:href="#DejaVuSans-65" transform="translate(1062.548828 0)"/>
      <use xlink:href="#DejaVuSans-64" transform="translate(1124.072266 0)"/>
     </g>
     <!-- Classifier Models -->
     <g transform="translate(92.415 397.605919) scale(0.12 -0.12)">
      <defs>
       <path id="DejaVuSans-43" d="M 4122 4306 
L 4122 3641 
Q 3803 3938 3442 4084 
Q 3081 4231 2675 4231 
Q 1875 4231 1450 3742 
Q 1025 3253 1025 2328 
Q 1025 1406 1450 917 
Q 1875 428 2675 428 
Q 3081 428 3442 575 
Q 3803 722 4122 1019 
L 4122 359 
Q 3791 134 3420 21 
Q 3050 -91 2638 -91 
Q 1578 -91 968 557 
Q 359 1206 359 2328 
Q 359 3453 968 4101 
Q 1578 4750 2638 4750 
Q 3056 4750 3426 4639 
Q 3797 4528 4122 4306 
z
" transform="scale(0.015625)"/>
       <path id="DejaVuSans-61" d="M 2194 1759 
Q 1497 1759 1228 1600 
Q 959 1441 959 1056 
Q 959 750 1161 570 
Q 1363 391 1709 391 
Q 2188 391 2477 730 
Q 2766 1069 2766 1631 
L 2766 1759 
L 2194 1759 
z
M 3341 1997 
L 3341 0 
L 2766 0 
L 2766 531 
Q 2569 213 2275 61 
Q 1981 -91 1556 -91 
Q 1019 -91 701 211 
Q 384 513 384 1019 
Q 384 1609 779 1909 
Q 1175 2209 1959 2209 
L 2766 2209 
L 2766 2266 
Q 2766 2663 2505 2880 
Q 2244 3097 1772 3097 
Q 1472 3097 1187 3025 
Q 903 2953 641 2809 
L 641 3341 
Q 956 3463 1253 3523 
Q 1550 3584 1831 3584 
Q 2591 3584 2966 3190 
Q 3341 2797 3341 1997 
z
" transform="scale(0.015625)"/>
       <path id="DejaVuSans-66" d="M 2375 4863 
L 2375 4384 
L 1825 4384 
Q 1516 4384 1395 4259 
Q 1275 4134 1275 3809 
L 1275 3500 
L 2222 3500 
L 2222 3053 
L 1275 3053 
L 1275 0 
L 697 0 
L 697 3053 
L 147 3053 
L 147 3500 
L 697 3500 
L 697 3744 
Q 697 4328 969 4595 
Q 1241 4863 1831 4863 
L 2375 4863 
z
" transform="scale(0.015625)"/>
      </defs>
      <use xlink:href="#DejaVuSans-43"/>
      <use xlink:href="#DejaVuSans-6c" transform="translate(69.824219 0)"/>
      <use xlink:href="#DejaVuSans-61" transform="translate(97.607422 0)"/>
      <use xlink:href="#DejaVuSans-73" transform="translate(158.886719 0)"/>
      <use xlink:href="#DejaVuSans-73" transform="translate(210.986328 0)"/>
      <use xlink:href="#DejaVuSans-69" transform="translate(263.085938 0)"/>
      <use xlink:href="#DejaVuSans-66" transform="translate(290.869141 0)"/>
      <use xlink:href="#DejaVuSans-69" transform="translate(326.074219 0)"/>
      <use xlink:href="#DejaVuSans-65" transform="translate(353.857422 0)"/>
      <use xlink:href="#DejaVuSans-72" transform="translate(415.380859 0)"/>
      <use xlink:href="#DejaVuSans-20" transform="translate(456.494141 0)"/>
      <use xlink:href="#DejaVuSans-4d" transform="translate(488.28125 0)"/>
      <use xlink:href="#DejaVuSans-6f" transform="translate(574.560547 0)"/>
      <use xlink:href="#DejaVuSans-64" transform="translate(635.742188 0)"/>
      <use xlink:href="#DejaVuSans-65" transform="translate(699.21875 0)"/>
      <use xlink:href="#DejaVuSans-6c" transform="translate(760.742188 0)"/>
      <use xlink:href="#DejaVuSans-73" transform="translate(788.525391 0)"/>
     </g>
    </g>
    <g id="line2d_38">
     <path d="M 58.815 418.986169 
L 70.815 418.986169 
L 82.815 418.986169 
" style="fill: none; stroke: #87ceeb; stroke-width: 10; stroke-linecap: square"/>
    </g>
    <g id="text_13">
     <!-- Weighted Supervised -->
     <g transform="translate(92.415 415.219669) scale(0.12 -0.12)">
      <defs>
       <path id="DejaVuSans-57" d="M 213 4666 
L 850 4666 
L 1831 722 
L 2809 4666 
L 3519 4666 
L 4500 722 
L 5478 4666 
L 6119 4666 
L 4947 0 
L 4153 0 
L 3169 4050 
L 2175 0 
L 1381 0 
L 213 4666 
z
" transform="scale(0.015625)"/>
      </defs>
      <use xlink:href="#DejaVuSans-57"/>
      <use xlink:href="#DejaVuSans-65" transform="translate(93.001953 0)"/>
      <use xlink:href="#DejaVuSans-69" transform="translate(154.525391 0)"/>
      <use xlink:href="#DejaVuSans-67" transform="translate(182.308594 0)"/>
      <use xlink:href="#DejaVuSans-68" transform="translate(245.785156 0)"/>
      <use xlink:href="#DejaVuSans-74" transform="translate(309.164062 0)"/>
      <use xlink:href="#DejaVuSans-65" transform="translate(348.373047 0)"/>
      <use xlink:href="#DejaVuSans-64" transform="translate(409.896484 0)"/>
      <use xlink:href="#DejaVuSans-20" transform="translate(473.373047 0)"/>
      <use xlink:href="#DejaVuSans-53" transform="translate(505.160156 0)"/>
      <use xlink:href="#DejaVuSans-75" transform="translate(568.636719 0)"/>
      <use xlink:href="#DejaVuSans-70" transform="translate(632.015625 0)"/>
      <use xlink:href="#DejaVuSans-65" transform="translate(695.492188 0)"/>
      <use xlink:href="#DejaVuSans-72" transform="translate(757.015625 0)"/>
      <use xlink:href="#DejaVuSans-76" transform="translate(798.128906 0)"/>
      <use xlink:href="#DejaVuSans-69" transform="translate(857.308594 0)"/>
      <use xlink:href="#DejaVuSans-73" transform="translate(885.091797 0)"/>
      <use xlink:href="#DejaVuSans-65" transform="translate(937.191406 0)"/>
      <use xlink:href="#DejaVuSans-64" transform="translate(998.714844 0)"/>
     </g>
     <!-- Classifier Models -->
     <g transform="translate(92.415 428.657044) scale(0.12 -0.12)">
      <use xlink:href="#DejaVuSans-43"/>
      <use xlink:href="#DejaVuSans-6c" transform="translate(69.824219 0)"/>
      <use xlink:href="#DejaVuSans-61" transform="translate(97.607422 0)"/>
      <use xlink:href="#DejaVuSans-73" transform="translate(158.886719 0)"/>
      <use xlink:href="#DejaVuSans-73" transform="translate(210.986328 0)"/>
      <use xlink:href="#DejaVuSans-69" transform="translate(263.085938 0)"/>
      <use xlink:href="#DejaVuSans-66" transform="translate(290.869141 0)"/>
      <use xlink:href="#DejaVuSans-69" transform="translate(326.074219 0)"/>
      <use xlink:href="#DejaVuSans-65" transform="translate(353.857422 0)"/>
      <use xlink:href="#DejaVuSans-72" transform="translate(415.380859 0)"/>
      <use xlink:href="#DejaVuSans-20" transform="translate(456.494141 0)"/>
      <use xlink:href="#DejaVuSans-4d" transform="translate(488.28125 0)"/>
      <use xlink:href="#DejaVuSans-6f" transform="translate(574.560547 0)"/>
      <use xlink:href="#DejaVuSans-64" transform="translate(635.742188 0)"/>
      <use xlink:href="#DejaVuSans-65" transform="translate(699.21875 0)"/>
      <use xlink:href="#DejaVuSans-6c" transform="translate(760.742188 0)"/>
      <use xlink:href="#DejaVuSans-73" transform="translate(788.525391 0)"/>
     </g>
    </g>
   </g>
  </g>
 </g>
 <defs>
  <clipPath id="p06649d0ffe">
   <rect x="54.015" y="10.999219" width="357.12" height="266.112"/>
  </clipPath>
 </defs>
</svg>
