<?xml version="1.0" encoding="utf-8" standalone="no"?>
<!DOCTYPE svg PUBLIC "-//W3C//DTD SVG 1.1//EN"
  "http://www.w3.org/Graphics/SVG/1.1/DTD/svg11.dtd">
<svg xmlns:xlink="http://www.w3.org/1999/xlink" width="681.714275pt" height="442.554727pt" viewBox="0 0 681.714275 442.554727" xmlns="http://www.w3.org/2000/svg" version="1.1">
 <metadata>
  <rdf:RDF xmlns:dc="http://purl.org/dc/elements/1.1/" xmlns:cc="http://creativecommons.org/ns#" xmlns:rdf="http://www.w3.org/1999/02/22-rdf-syntax-ns#">
   <cc:Work>
    <dc:type rdf:resource="http://purl.org/dc/dcmitype/StillImage"/>
    <dc:date>2026-01-12T16:49:07.534699</dc:date>
    <dc:format>image/svg+xml</dc:format>
    <dc:creator>
     <cc:Agent>
      <dc:title>Matplotlib v3.10.8, https://matplotlib.org/</dc:title>
     </cc:Agent>
    </dc:creator>
   </cc:Work>
  </rdf:RDF>
 </metadata>
 <defs>
  <style type="text/css">*{stroke-linejoin: round; stroke-linecap: butt}</style>
 </defs>
 <g id="figure_1">
  <g id="patch_1">
   <path d="M 0 442.554727 
L 681.714275 442.554727 
L 681.714275 0 
L 0 0 
z
" style="fill: #ffffff"/>
  </g>
  <g id="axes_1">
   <g id="patch_2">
    <path d="M 124.5425 309.386 
L 481.6625 309.386 
L 481.6625 43.274 
L 124.5425 43.274 
z
" style="fill: #ffffff"/>
   </g>
   <g id="PathCollection_1"/>
   <g id="PathCollection_2"/>
   <g id="PathCollection_3"/>
   <g id="matplotlib.axis_1">
    <g id="xtick_1">
     <g id="line2d_1">
      <defs>
       <path id="md248d09f2c" d="M 0 0 
L 0 3.5 
" style="stroke: #000000; stroke-width: 0.8"/>
      </defs>
      <g>
       <use xlink:href="#md248d09f2c" x="144.3825" y="309.386" style="stroke: #000000; stroke-width: 0.8"/>
      </g>
     </g>
     <g id="text_1">
      <!-- Laszakovits &amp; MacKay -->
      <g transform="translate(32.935842 433.295942) rotate(-45) scale(0.14 -0.14)">
       <defs>
        <path id="DejaVuSans-4c" d="M 628 4666 
L 1259 4666 
L 1259 531 
L 3531 531 
L 3531 0 
L 628 0 
L 628 4666 
z
" transform="scale(0.015625)"/>
        <path id="DejaVuSans-61" d="M 2194 1759 
Q 1497 1759 1228 1600 
Q 959 1441 959 1056 
Q 959 750 1161 570 
Q 1363 391 1709 391 
Q 2188 391 2477 730 
Q 2766 1069 2766 1631 
L 2766 1759 
L 2194 1759 
z
M 3341 1997 
L 3341 0 
L 2766 0 
L 2766 531 
Q 2569 213 2275 61 
Q 1981 -91 1556 -91 
Q 1019 -91 701 211 
Q 384 513 384 1019 
Q 384 1609 779 1909 
Q 1175 2209 1959 2209 
L 2766 2209 
L 2766 2266 
Q 2766 2663 2505 2880 
Q 2244 3097 1772 3097 
Q 1472 3097 1187 3025 
Q 903 2953 641 2809 
L 641 3341 
Q 956 3463 1253 3523 
Q 1550 3584 1831 3584 
Q 2591 3584 2966 3190 
Q 3341 2797 3341 1997 
z
" transform="scale(0.015625)"/>
        <path id="DejaVuSans-73" d="M 2834 3397 
L 2834 2853 
Q 2591 2978 2328 3040 
Q 2066 3103 1784 3103 
Q 1356 3103 1142 2972 
Q 928 2841 928 2578 
Q 928 2378 1081 2264 
Q 1234 2150 1697 2047 
L 1894 2003 
Q 2506 1872 2764 1633 
Q 3022 1394 3022 966 
Q 3022 478 2636 193 
Q 2250 -91 1575 -91 
Q 1294 -91 989 -36 
Q 684 19 347 128 
L 347 722 
Q 666 556 975 473 
Q 1284 391 1588 391 
Q 1994 391 2212 530 
Q 2431 669 2431 922 
Q 2431 1156 2273 1281 
Q 2116 1406 1581 1522 
L 1381 1569 
Q 847 1681 609 1914 
Q 372 2147 372 2553 
Q 372 3047 722 3315 
Q 1072 3584 1716 3584 
Q 2034 3584 2315 3537 
Q 2597 3491 2834 3397 
z
" transform="scale(0.015625)"/>
        <path id="DejaVuSans-7a" d="M 353 3500 
L 3084 3500 
L 3084 2975 
L 922 459 
L 3084 459 
L 3084 0 
L 275 0 
L 275 525 
L 2438 3041 
L 353 3041 
L 353 3500 
z
" transform="scale(0.015625)"/>
        <path id="DejaVuSans-6b" d="M 581 4863 
L 1159 4863 
L 1159 1991 
L 2875 3500 
L 3609 3500 
L 1753 1863 
L 3688 0 
L 2938 0 
L 1159 1709 
L 1159 0 
L 581 0 
L 581 4863 
z
" transform="scale(0.015625)"/>
        <path id="DejaVuSans-6f" d="M 1959 3097 
Q 1497 3097 1228 2736 
Q 959 2375 959 1747 
Q 959 1119 1226 758 
Q 1494 397 1959 397 
Q 2419 397 2687 759 
Q 2956 1122 2956 1747 
Q 2956 2369 2687 2733 
Q 2419 3097 1959 3097 
z
M 1959 3584 
Q 2709 3584 3137 3096 
Q 3566 2609 3566 1747 
Q 3566 888 3137 398 
Q 2709 -91 1959 -91 
Q 1206 -91 779 398 
Q 353 888 353 1747 
Q 353 2609 779 3096 
Q 1206 3584 1959 3584 
z
" transform="scale(0.015625)"/>
        <path id="DejaVuSans-76" d="M 191 3500 
L 800 3500 
L 1894 563 
L 2988 3500 
L 3597 3500 
L 2284 0 
L 1503 0 
L 191 3500 
z
" transform="scale(0.015625)"/>
        <path id="DejaVuSans-69" d="M 603 3500 
L 1178 3500 
L 1178 0 
L 603 0 
L 603 3500 
z
M 603 4863 
L 1178 4863 
L 1178 4134 
L 603 4134 
L 603 4863 
z
" transform="scale(0.015625)"/>
        <path id="DejaVuSans-74" d="M 1172 4494 
L 1172 3500 
L 2356 3500 
L 2356 3053 
L 1172 3053 
L 1172 1153 
Q 1172 725 1289 603 
Q 1406 481 1766 481 
L 2356 481 
L 2356 0 
L 1766 0 
Q 1100 0 847 248 
Q 594 497 594 1153 
L 594 3053 
L 172 3053 
L 172 3500 
L 594 3500 
L 594 4494 
L 1172 4494 
z
" transform="scale(0.015625)"/>
        <path id="DejaVuSans-20" transform="scale(0.015625)"/>
        <path id="DejaVuSans-26" d="M 1556 2509 
Q 1272 2256 1139 2004 
Q 1006 1753 1006 1478 
Q 1006 1022 1337 719 
Q 1669 416 2169 416 
Q 2466 416 2725 514 
Q 2984 613 3213 813 
L 1556 2509 
z
M 1997 2859 
L 3584 1234 
Q 3769 1513 3872 1830 
Q 3975 2147 3994 2503 
L 4575 2503 
Q 4538 2091 4375 1687 
Q 4213 1284 3922 891 
L 4794 0 
L 4006 0 
L 3559 459 
Q 3234 181 2878 45 
Q 2522 -91 2113 -91 
Q 1359 -91 881 339 
Q 403 769 403 1441 
Q 403 1841 612 2192 
Q 822 2544 1241 2853 
Q 1091 3050 1012 3245 
Q 934 3441 934 3628 
Q 934 4134 1281 4442 
Q 1628 4750 2203 4750 
Q 2463 4750 2720 4694 
Q 2978 4638 3244 4525 
L 3244 3956 
Q 2972 4103 2725 4179 
Q 2478 4256 2266 4256 
Q 1938 4256 1733 4082 
Q 1528 3909 1528 3634 
Q 1528 3475 1620 3314 
Q 1713 3153 1997 2859 
z
" transform="scale(0.015625)"/>
        <path id="DejaVuSans-4d" d="M 628 4666 
L 1569 4666 
L 2759 1491 
L 3956 4666 
L 4897 4666 
L 4897 0 
L 4281 0 
L 4281 4097 
L 3078 897 
L 2444 897 
L 1241 4097 
L 1241 0 
L 628 0 
L 628 4666 
z
" transform="scale(0.015625)"/>
        <path id="DejaVuSans-63" d="M 3122 3366 
L 3122 2828 
Q 2878 2963 2633 3030 
Q 2388 3097 2138 3097 
Q 1578 3097 1268 2742 
Q 959 2388 959 1747 
Q 959 1106 1268 751 
Q 1578 397 2138 397 
Q 2388 397 2633 464 
Q 2878 531 3122 666 
L 3122 134 
Q 2881 22 2623 -34 
Q 2366 -91 2075 -91 
Q 1284 -91 818 406 
Q 353 903 353 1747 
Q 353 2603 823 3093 
Q 1294 3584 2113 3584 
Q 2378 3584 2631 3529 
Q 2884 3475 3122 3366 
z
" transform="scale(0.015625)"/>
        <path id="DejaVuSans-4b" d="M 628 4666 
L 1259 4666 
L 1259 2694 
L 3353 4666 
L 4166 4666 
L 1850 2491 
L 4331 0 
L 3500 0 
L 1259 2247 
L 1259 0 
L 628 0 
L 628 4666 
z
" transform="scale(0.015625)"/>
        <path id="DejaVuSans-79" d="M 2059 -325 
Q 1816 -950 1584 -1140 
Q 1353 -1331 966 -1331 
L 506 -1331 
L 506 -850 
L 844 -850 
Q 1081 -850 1212 -737 
Q 1344 -625 1503 -206 
L 1606 56 
L 191 3500 
L 800 3500 
L 1894 763 
L 2988 3500 
L 3597 3500 
L 2059 -325 
z
" transform="scale(0.015625)"/>
       </defs>
       <use xlink:href="#DejaVuSans-4c"/>
       <use xlink:href="#DejaVuSans-61" transform="translate(55.712891 0)"/>
       <use xlink:href="#DejaVuSans-73" transform="translate(116.992188 0)"/>
       <use xlink:href="#DejaVuSans-7a" transform="translate(169.091797 0)"/>
       <use xlink:href="#DejaVuSans-61" transform="translate(221.582031 0)"/>
       <use xlink:href="#DejaVuSans-6b" transform="translate(282.861328 0)"/>
       <use xlink:href="#DejaVuSans-6f" transform="translate(337.146484 0)"/>
       <use xlink:href="#DejaVuSans-76" transform="translate(398.328125 0)"/>
       <use xlink:href="#DejaVuSans-69" transform="translate(457.507812 0)"/>
       <use xlink:href="#DejaVuSans-74" transform="translate(485.291016 0)"/>
       <use xlink:href="#DejaVuSans-73" transform="translate(524.5 0)"/>
       <use xlink:href="#DejaVuSans-20" transform="translate(576.599609 0)"/>
       <use xlink:href="#DejaVuSans-26" transform="translate(608.386719 0)"/>
       <use xlink:href="#DejaVuSans-20" transform="translate(686.365234 0)"/>
       <use xlink:href="#DejaVuSans-4d" transform="translate(718.152344 0)"/>
       <use xlink:href="#DejaVuSans-61" transform="translate(804.431641 0)"/>
       <use xlink:href="#DejaVuSans-63" transform="translate(865.710938 0)"/>
       <use xlink:href="#DejaVuSans-4b" transform="translate(920.691406 0)"/>
       <use xlink:href="#DejaVuSans-61" transform="translate(984.517578 0)"/>
       <use xlink:href="#DejaVuSans-79" transform="translate(1045.796875 0)"/>
      </g>
     </g>
    </g>
    <g id="xtick_2">
     <g id="line2d_2">
      <g>
       <use xlink:href="#md248d09f2c" x="184.0625" y="309.386" style="stroke: #000000; stroke-width: 0.8"/>
      </g>
     </g>
     <g id="text_2">
      <!-- Adjusted Rivas-Ubach -->
      <g transform="translate(73.9399 431.971884) rotate(-45) scale(0.14 -0.14)">
       <defs>
        <path id="DejaVuSans-41" d="M 2188 4044 
L 1331 1722 
L 3047 1722 
L 2188 4044 
z
M 1831 4666 
L 2547 4666 
L 4325 0 
L 3669 0 
L 3244 1197 
L 1141 1197 
L 716 0 
L 50 0 
L 1831 4666 
z
" transform="scale(0.015625)"/>
        <path id="DejaVuSans-64" d="M 2906 2969 
L 2906 4863 
L 3481 4863 
L 3481 0 
L 2906 0 
L 2906 525 
Q 2725 213 2448 61 
Q 2172 -91 1784 -91 
Q 1150 -91 751 415 
Q 353 922 353 1747 
Q 353 2572 751 3078 
Q 1150 3584 1784 3584 
Q 2172 3584 2448 3432 
Q 2725 3281 2906 2969 
z
M 947 1747 
Q 947 1113 1208 752 
Q 1469 391 1925 391 
Q 2381 391 2643 752 
Q 2906 1113 2906 1747 
Q 2906 2381 2643 2742 
Q 2381 3103 1925 3103 
Q 1469 3103 1208 2742 
Q 947 2381 947 1747 
z
" transform="scale(0.015625)"/>
        <path id="DejaVuSans-6a" d="M 603 3500 
L 1178 3500 
L 1178 -63 
Q 1178 -731 923 -1031 
Q 669 -1331 103 -1331 
L -116 -1331 
L -116 -844 
L 38 -844 
Q 366 -844 484 -692 
Q 603 -541 603 -63 
L 603 3500 
z
M 603 4863 
L 1178 4863 
L 1178 4134 
L 603 4134 
L 603 4863 
z
" transform="scale(0.015625)"/>
        <path id="DejaVuSans-75" d="M 544 1381 
L 544 3500 
L 1119 3500 
L 1119 1403 
Q 1119 906 1312 657 
Q 1506 409 1894 409 
Q 2359 409 2629 706 
Q 2900 1003 2900 1516 
L 2900 3500 
L 3475 3500 
L 3475 0 
L 2900 0 
L 2900 538 
Q 2691 219 2414 64 
Q 2138 -91 1772 -91 
Q 1169 -91 856 284 
Q 544 659 544 1381 
z
M 1991 3584 
L 1991 3584 
z
" transform="scale(0.015625)"/>
        <path id="DejaVuSans-65" d="M 3597 1894 
L 3597 1613 
L 953 1613 
Q 991 1019 1311 708 
Q 1631 397 2203 397 
Q 2534 397 2845 478 
Q 3156 559 3463 722 
L 3463 178 
Q 3153 47 2828 -22 
Q 2503 -91 2169 -91 
Q 1331 -91 842 396 
Q 353 884 353 1716 
Q 353 2575 817 3079 
Q 1281 3584 2069 3584 
Q 2775 3584 3186 3129 
Q 3597 2675 3597 1894 
z
M 3022 2063 
Q 3016 2534 2758 2815 
Q 2500 3097 2075 3097 
Q 1594 3097 1305 2825 
Q 1016 2553 972 2059 
L 3022 2063 
z
" transform="scale(0.015625)"/>
        <path id="DejaVuSans-52" d="M 2841 2188 
Q 3044 2119 3236 1894 
Q 3428 1669 3622 1275 
L 4263 0 
L 3584 0 
L 2988 1197 
Q 2756 1666 2539 1819 
Q 2322 1972 1947 1972 
L 1259 1972 
L 1259 0 
L 628 0 
L 628 4666 
L 2053 4666 
Q 2853 4666 3247 4331 
Q 3641 3997 3641 3322 
Q 3641 2881 3436 2590 
Q 3231 2300 2841 2188 
z
M 1259 4147 
L 1259 2491 
L 2053 2491 
Q 2509 2491 2742 2702 
Q 2975 2913 2975 3322 
Q 2975 3731 2742 3939 
Q 2509 4147 2053 4147 
L 1259 4147 
z
" transform="scale(0.015625)"/>
        <path id="DejaVuSans-2d" d="M 313 2009 
L 1997 2009 
L 1997 1497 
L 313 1497 
L 313 2009 
z
" transform="scale(0.015625)"/>
        <path id="DejaVuSans-55" d="M 556 4666 
L 1191 4666 
L 1191 1831 
Q 1191 1081 1462 751 
Q 1734 422 2344 422 
Q 2950 422 3222 751 
Q 3494 1081 3494 1831 
L 3494 4666 
L 4128 4666 
L 4128 1753 
Q 4128 841 3676 375 
Q 3225 -91 2344 -91 
Q 1459 -91 1007 375 
Q 556 841 556 1753 
L 556 4666 
z
" transform="scale(0.015625)"/>
        <path id="DejaVuSans-62" d="M 3116 1747 
Q 3116 2381 2855 2742 
Q 2594 3103 2138 3103 
Q 1681 3103 1420 2742 
Q 1159 2381 1159 1747 
Q 1159 1113 1420 752 
Q 1681 391 2138 391 
Q 2594 391 2855 752 
Q 3116 1113 3116 1747 
z
M 1159 2969 
Q 1341 3281 1617 3432 
Q 1894 3584 2278 3584 
Q 2916 3584 3314 3078 
Q 3713 2572 3713 1747 
Q 3713 922 3314 415 
Q 2916 -91 2278 -91 
Q 1894 -91 1617 61 
Q 1341 213 1159 525 
L 1159 0 
L 581 0 
L 581 4863 
L 1159 4863 
L 1159 2969 
z
" transform="scale(0.015625)"/>
        <path id="DejaVuSans-68" d="M 3513 2113 
L 3513 0 
L 2938 0 
L 2938 2094 
Q 2938 2591 2744 2837 
Q 2550 3084 2163 3084 
Q 1697 3084 1428 2787 
Q 1159 2491 1159 1978 
L 1159 0 
L 581 0 
L 581 4863 
L 1159 4863 
L 1159 2956 
Q 1366 3272 1645 3428 
Q 1925 3584 2291 3584 
Q 2894 3584 3203 3211 
Q 3513 2838 3513 2113 
z
" transform="scale(0.015625)"/>
       </defs>
       <use xlink:href="#DejaVuSans-41"/>
       <use xlink:href="#DejaVuSans-64" transform="translate(66.658203 0)"/>
       <use xlink:href="#DejaVuSans-6a" transform="translate(130.134766 0)"/>
       <use xlink:href="#DejaVuSans-75" transform="translate(157.917969 0)"/>
       <use xlink:href="#DejaVuSans-73" transform="translate(221.296875 0)"/>
       <use xlink:href="#DejaVuSans-74" transform="translate(273.396484 0)"/>
       <use xlink:href="#DejaVuSans-65" transform="translate(312.605469 0)"/>
       <use xlink:href="#DejaVuSans-64" transform="translate(374.128906 0)"/>
       <use xlink:href="#DejaVuSans-20" transform="translate(437.605469 0)"/>
       <use xlink:href="#DejaVuSans-52" transform="translate(469.392578 0)"/>
       <use xlink:href="#DejaVuSans-69" transform="translate(538.875 0)"/>
       <use xlink:href="#DejaVuSans-76" transform="translate(566.658203 0)"/>
       <use xlink:href="#DejaVuSans-61" transform="translate(625.837891 0)"/>
       <use xlink:href="#DejaVuSans-73" transform="translate(687.117188 0)"/>
       <use xlink:href="#DejaVuSans-2d" transform="translate(739.216797 0)"/>
       <use xlink:href="#DejaVuSans-55" transform="translate(775.300781 0)"/>
       <use xlink:href="#DejaVuSans-62" transform="translate(848.494141 0)"/>
       <use xlink:href="#DejaVuSans-61" transform="translate(911.970703 0)"/>
       <use xlink:href="#DejaVuSans-63" transform="translate(973.25 0)"/>
       <use xlink:href="#DejaVuSans-68" transform="translate(1028.230469 0)"/>
      </g>
     </g>
    </g>
    <g id="xtick_3">
     <g id="line2d_3">
      <g>
       <use xlink:href="#md248d09f2c" x="223.7425" y="309.386" style="stroke: #000000; stroke-width: 0.8"/>
      </g>
     </g>
     <g id="text_3">
      <!-- GNB (U) -->
      <g transform="translate(181.699036 363.892748) rotate(-45) scale(0.14 -0.14)">
       <defs>
        <path id="DejaVuSans-47" d="M 3809 666 
L 3809 1919 
L 2778 1919 
L 2778 2438 
L 4434 2438 
L 4434 434 
Q 4069 175 3628 42 
Q 3188 -91 2688 -91 
Q 1594 -91 976 548 
Q 359 1188 359 2328 
Q 359 3472 976 4111 
Q 1594 4750 2688 4750 
Q 3144 4750 3555 4637 
Q 3966 4525 4313 4306 
L 4313 3634 
Q 3963 3931 3569 4081 
Q 3175 4231 2741 4231 
Q 1884 4231 1454 3753 
Q 1025 3275 1025 2328 
Q 1025 1384 1454 906 
Q 1884 428 2741 428 
Q 3075 428 3337 486 
Q 3600 544 3809 666 
z
" transform="scale(0.015625)"/>
        <path id="DejaVuSans-4e" d="M 628 4666 
L 1478 4666 
L 3547 763 
L 3547 4666 
L 4159 4666 
L 4159 0 
L 3309 0 
L 1241 3903 
L 1241 0 
L 628 0 
L 628 4666 
z
" transform="scale(0.015625)"/>
        <path id="DejaVuSans-42" d="M 1259 2228 
L 1259 519 
L 2272 519 
Q 2781 519 3026 730 
Q 3272 941 3272 1375 
Q 3272 1813 3026 2020 
Q 2781 2228 2272 2228 
L 1259 2228 
z
M 1259 4147 
L 1259 2741 
L 2194 2741 
Q 2656 2741 2882 2914 
Q 3109 3088 3109 3444 
Q 3109 3797 2882 3972 
Q 2656 4147 2194 4147 
L 1259 4147 
z
M 628 4666 
L 2241 4666 
Q 2963 4666 3353 4366 
Q 3744 4066 3744 3513 
Q 3744 3084 3544 2831 
Q 3344 2578 2956 2516 
Q 3422 2416 3680 2098 
Q 3938 1781 3938 1306 
Q 3938 681 3513 340 
Q 3088 0 2303 0 
L 628 0 
L 628 4666 
z
" transform="scale(0.015625)"/>
        <path id="DejaVuSans-28" d="M 1984 4856 
Q 1566 4138 1362 3434 
Q 1159 2731 1159 2009 
Q 1159 1288 1364 580 
Q 1569 -128 1984 -844 
L 1484 -844 
Q 1016 -109 783 600 
Q 550 1309 550 2009 
Q 550 2706 781 3412 
Q 1013 4119 1484 4856 
L 1984 4856 
z
" transform="scale(0.015625)"/>
        <path id="DejaVuSans-29" d="M 513 4856 
L 1013 4856 
Q 1481 4119 1714 3412 
Q 1947 2706 1947 2009 
Q 1947 1309 1714 600 
Q 1481 -109 1013 -844 
L 513 -844 
Q 928 -128 1133 580 
Q 1338 1288 1338 2009 
Q 1338 2731 1133 3434 
Q 928 4138 513 4856 
z
" transform="scale(0.015625)"/>
       </defs>
       <use xlink:href="#DejaVuSans-47"/>
       <use xlink:href="#DejaVuSans-4e" transform="translate(77.490234 0)"/>
       <use xlink:href="#DejaVuSans-42" transform="translate(152.294922 0)"/>
       <use xlink:href="#DejaVuSans-20" transform="translate(220.898438 0)"/>
       <use xlink:href="#DejaVuSans-28" transform="translate(252.685547 0)"/>
       <use xlink:href="#DejaVuSans-55" transform="translate(291.699219 0)"/>
       <use xlink:href="#DejaVuSans-29" transform="translate(364.892578 0)"/>
      </g>
     </g>
    </g>
    <g id="xtick_4">
     <g id="line2d_4">
      <g>
       <use xlink:href="#md248d09f2c" x="263.4225" y="309.386" style="stroke: #000000; stroke-width: 0.8"/>
      </g>
     </g>
     <g id="text_4">
      <!-- SVM (poly) (U) -->
      <g transform="translate(189.827489 395.444295) rotate(-45) scale(0.14 -0.14)">
       <defs>
        <path id="DejaVuSans-53" d="M 3425 4513 
L 3425 3897 
Q 3066 4069 2747 4153 
Q 2428 4238 2131 4238 
Q 1616 4238 1336 4038 
Q 1056 3838 1056 3469 
Q 1056 3159 1242 3001 
Q 1428 2844 1947 2747 
L 2328 2669 
Q 3034 2534 3370 2195 
Q 3706 1856 3706 1288 
Q 3706 609 3251 259 
Q 2797 -91 1919 -91 
Q 1588 -91 1214 -16 
Q 841 59 441 206 
L 441 856 
Q 825 641 1194 531 
Q 1563 422 1919 422 
Q 2459 422 2753 634 
Q 3047 847 3047 1241 
Q 3047 1584 2836 1778 
Q 2625 1972 2144 2069 
L 1759 2144 
Q 1053 2284 737 2584 
Q 422 2884 422 3419 
Q 422 4038 858 4394 
Q 1294 4750 2059 4750 
Q 2388 4750 2728 4690 
Q 3069 4631 3425 4513 
z
" transform="scale(0.015625)"/>
        <path id="DejaVuSans-56" d="M 1831 0 
L 50 4666 
L 709 4666 
L 2188 738 
L 3669 4666 
L 4325 4666 
L 2547 0 
L 1831 0 
z
" transform="scale(0.015625)"/>
        <path id="DejaVuSans-70" d="M 1159 525 
L 1159 -1331 
L 581 -1331 
L 581 3500 
L 1159 3500 
L 1159 2969 
Q 1341 3281 1617 3432 
Q 1894 3584 2278 3584 
Q 2916 3584 3314 3078 
Q 3713 2572 3713 1747 
Q 3713 922 3314 415 
Q 2916 -91 2278 -91 
Q 1894 -91 1617 61 
Q 1341 213 1159 525 
z
M 3116 1747 
Q 3116 2381 2855 2742 
Q 2594 3103 2138 3103 
Q 1681 3103 1420 2742 
Q 1159 2381 1159 1747 
Q 1159 1113 1420 752 
Q 1681 391 2138 391 
Q 2594 391 2855 752 
Q 3116 1113 3116 1747 
z
" transform="scale(0.015625)"/>
        <path id="DejaVuSans-6c" d="M 603 4863 
L 1178 4863 
L 1178 0 
L 603 0 
L 603 4863 
z
" transform="scale(0.015625)"/>
       </defs>
       <use xlink:href="#DejaVuSans-53"/>
       <use xlink:href="#DejaVuSans-56" transform="translate(63.476562 0)"/>
       <use xlink:href="#DejaVuSans-4d" transform="translate(131.884766 0)"/>
       <use xlink:href="#DejaVuSans-20" transform="translate(218.164062 0)"/>
       <use xlink:href="#DejaVuSans-28" transform="translate(249.951172 0)"/>
       <use xlink:href="#DejaVuSans-70" transform="translate(288.964844 0)"/>
       <use xlink:href="#DejaVuSans-6f" transform="translate(352.441406 0)"/>
       <use xlink:href="#DejaVuSans-6c" transform="translate(413.623047 0)"/>
       <use xlink:href="#DejaVuSans-79" transform="translate(441.40625 0)"/>
       <use xlink:href="#DejaVuSans-29" transform="translate(500.585938 0)"/>
       <use xlink:href="#DejaVuSans-20" transform="translate(539.599609 0)"/>
       <use xlink:href="#DejaVuSans-28" transform="translate(571.386719 0)"/>
       <use xlink:href="#DejaVuSans-55" transform="translate(610.400391 0)"/>
       <use xlink:href="#DejaVuSans-29" transform="translate(683.59375 0)"/>
      </g>
     </g>
    </g>
    <g id="xtick_5">
     <g id="line2d_5">
      <g>
       <use xlink:href="#md248d09f2c" x="303.1025" y="309.386" style="stroke: #000000; stroke-width: 0.8"/>
      </g>
     </g>
     <g id="text_5">
      <!-- SVM (RBF) (U) -->
      <g transform="translate(231.094502 393.857282) rotate(-45) scale(0.14 -0.14)">
       <defs>
        <path id="DejaVuSans-46" d="M 628 4666 
L 3309 4666 
L 3309 4134 
L 1259 4134 
L 1259 2759 
L 3109 2759 
L 3109 2228 
L 1259 2228 
L 1259 0 
L 628 0 
L 628 4666 
z
" transform="scale(0.015625)"/>
       </defs>
       <use xlink:href="#DejaVuSans-53"/>
       <use xlink:href="#DejaVuSans-56" transform="translate(63.476562 0)"/>
       <use xlink:href="#DejaVuSans-4d" transform="translate(131.884766 0)"/>
       <use xlink:href="#DejaVuSans-20" transform="translate(218.164062 0)"/>
       <use xlink:href="#DejaVuSans-28" transform="translate(249.951172 0)"/>
       <use xlink:href="#DejaVuSans-52" transform="translate(288.964844 0)"/>
       <use xlink:href="#DejaVuSans-42" transform="translate(358.447266 0)"/>
       <use xlink:href="#DejaVuSans-46" transform="translate(427.050781 0)"/>
       <use xlink:href="#DejaVuSans-29" transform="translate(484.570312 0)"/>
       <use xlink:href="#DejaVuSans-20" transform="translate(523.583984 0)"/>
       <use xlink:href="#DejaVuSans-28" transform="translate(555.371094 0)"/>
       <use xlink:href="#DejaVuSans-55" transform="translate(594.384766 0)"/>
       <use xlink:href="#DejaVuSans-29" transform="translate(667.578125 0)"/>
      </g>
     </g>
    </g>
    <g id="xtick_6">
     <g id="line2d_6">
      <g>
       <use xlink:href="#md248d09f2c" x="342.7825" y="309.386" style="stroke: #000000; stroke-width: 0.8"/>
      </g>
     </g>
     <g id="text_6">
      <!-- KNN -->
      <g transform="translate(319.419692 345.212092) rotate(-45) scale(0.14 -0.14)">
       <use xlink:href="#DejaVuSans-4b"/>
       <use xlink:href="#DejaVuSans-4e" transform="translate(65.576172 0)"/>
       <use xlink:href="#DejaVuSans-4e" transform="translate(140.380859 0)"/>
      </g>
     </g>
    </g>
    <g id="xtick_7">
     <g id="line2d_7">
      <g>
       <use xlink:href="#md248d09f2c" x="382.4625" y="309.386" style="stroke: #000000; stroke-width: 0.8"/>
      </g>
     </g>
     <g id="text_7">
      <!-- GNB (W) -->
      <g transform="translate(337.876103 366.435681) rotate(-45) scale(0.14 -0.14)">
       <defs>
        <path id="DejaVuSans-57" d="M 213 4666 
L 850 4666 
L 1831 722 
L 2809 4666 
L 3519 4666 
L 4500 722 
L 5478 4666 
L 6119 4666 
L 4947 0 
L 4153 0 
L 3169 4050 
L 2175 0 
L 1381 0 
L 213 4666 
z
" transform="scale(0.015625)"/>
       </defs>
       <use xlink:href="#DejaVuSans-47"/>
       <use xlink:href="#DejaVuSans-4e" transform="translate(77.490234 0)"/>
       <use xlink:href="#DejaVuSans-42" transform="translate(152.294922 0)"/>
       <use xlink:href="#DejaVuSans-20" transform="translate(220.898438 0)"/>
       <use xlink:href="#DejaVuSans-28" transform="translate(252.685547 0)"/>
       <use xlink:href="#DejaVuSans-57" transform="translate(291.699219 0)"/>
       <use xlink:href="#DejaVuSans-29" transform="translate(390.576172 0)"/>
      </g>
     </g>
    </g>
    <g id="xtick_8">
     <g id="line2d_8">
      <g>
       <use xlink:href="#md248d09f2c" x="422.1425" y="309.386" style="stroke: #000000; stroke-width: 0.8"/>
      </g>
     </g>
     <g id="text_8">
      <!-- SVM (poly) (W) -->
      <g transform="translate(346.004556 397.987227) rotate(-45) scale(0.14 -0.14)">
       <use xlink:href="#DejaVuSans-53"/>
       <use xlink:href="#DejaVuSans-56" transform="translate(63.476562 0)"/>
       <use xlink:href="#DejaVuSans-4d" transform="translate(131.884766 0)"/>
       <use xlink:href="#DejaVuSans-20" transform="translate(218.164062 0)"/>
       <use xlink:href="#DejaVuSans-28" transform="translate(249.951172 0)"/>
       <use xlink:href="#DejaVuSans-70" transform="translate(288.964844 0)"/>
       <use xlink:href="#DejaVuSans-6f" transform="translate(352.441406 0)"/>
       <use xlink:href="#DejaVuSans-6c" transform="translate(413.623047 0)"/>
       <use xlink:href="#DejaVuSans-79" transform="translate(441.40625 0)"/>
       <use xlink:href="#DejaVuSans-29" transform="translate(500.585938 0)"/>
       <use xlink:href="#DejaVuSans-20" transform="translate(539.599609 0)"/>
       <use xlink:href="#DejaVuSans-28" transform="translate(571.386719 0)"/>
       <use xlink:href="#DejaVuSans-57" transform="translate(610.400391 0)"/>
       <use xlink:href="#DejaVuSans-29" transform="translate(709.277344 0)"/>
      </g>
     </g>
    </g>
    <g id="xtick_9">
     <g id="line2d_9">
      <g>
       <use xlink:href="#md248d09f2c" x="461.8225" y="309.386" style="stroke: #000000; stroke-width: 0.8"/>
      </g>
     </g>
     <g id="text_9">
      <!-- SVM (RBF) (W) -->
      <g transform="translate(387.271569 396.400215) rotate(-45) scale(0.14 -0.14)">
       <use xlink:href="#DejaVuSans-53"/>
       <use xlink:href="#DejaVuSans-56" transform="translate(63.476562 0)"/>
       <use xlink:href="#DejaVuSans-4d" transform="translate(131.884766 0)"/>
       <use xlink:href="#DejaVuSans-20" transform="translate(218.164062 0)"/>
       <use xlink:href="#DejaVuSans-28" transform="translate(249.951172 0)"/>
       <use xlink:href="#DejaVuSans-52" transform="translate(288.964844 0)"/>
       <use xlink:href="#DejaVuSans-42" transform="translate(358.447266 0)"/>
       <use xlink:href="#DejaVuSans-46" transform="translate(427.050781 0)"/>
       <use xlink:href="#DejaVuSans-29" transform="translate(484.570312 0)"/>
       <use xlink:href="#DejaVuSans-20" transform="translate(523.583984 0)"/>
       <use xlink:href="#DejaVuSans-28" transform="translate(555.371094 0)"/>
       <use xlink:href="#DejaVuSans-57" transform="translate(594.384766 0)"/>
       <use xlink:href="#DejaVuSans-29" transform="translate(693.261719 0)"/>
      </g>
     </g>
    </g>
   </g>
   <g id="matplotlib.axis_2">
    <g id="ytick_1">
     <g id="line2d_10">
      <defs>
       <path id="m349418a153" d="M 0 0 
L -3.5 0 
" style="stroke: #000000; stroke-width: 0.8"/>
      </defs>
      <g>
       <use xlink:href="#m349418a153" x="124.5425" y="309.386" style="stroke: #000000; stroke-width: 0.8"/>
      </g>
     </g>
     <g id="text_10">
      <!-- 0.40 -->
      <g transform="translate(95.276875 313.185219) scale(0.1 -0.1)">
       <defs>
        <path id="DejaVuSans-30" d="M 2034 4250 
Q 1547 4250 1301 3770 
Q 1056 3291 1056 2328 
Q 1056 1369 1301 889 
Q 1547 409 2034 409 
Q 2525 409 2770 889 
Q 3016 1369 3016 2328 
Q 3016 3291 2770 3770 
Q 2525 4250 2034 4250 
z
M 2034 4750 
Q 2819 4750 3233 4129 
Q 3647 3509 3647 2328 
Q 3647 1150 3233 529 
Q 2819 -91 2034 -91 
Q 1250 -91 836 529 
Q 422 1150 422 2328 
Q 422 3509 836 4129 
Q 1250 4750 2034 4750 
z
" transform="scale(0.015625)"/>
        <path id="DejaVuSans-2e" d="M 684 794 
L 1344 794 
L 1344 0 
L 684 0 
L 684 794 
z
" transform="scale(0.015625)"/>
        <path id="DejaVuSans-34" d="M 2419 4116 
L 825 1625 
L 2419 1625 
L 2419 4116 
z
M 2253 4666 
L 3047 4666 
L 3047 1625 
L 3713 1625 
L 3713 1100 
L 3047 1100 
L 3047 0 
L 2419 0 
L 2419 1100 
L 313 1100 
L 313 1709 
L 2253 4666 
z
" transform="scale(0.015625)"/>
       </defs>
       <use xlink:href="#DejaVuSans-30"/>
       <use xlink:href="#DejaVuSans-2e" transform="translate(63.623047 0)"/>
       <use xlink:href="#DejaVuSans-34" transform="translate(95.410156 0)"/>
       <use xlink:href="#DejaVuSans-30" transform="translate(159.033203 0)"/>
      </g>
     </g>
    </g>
    <g id="ytick_2">
     <g id="line2d_11">
      <g>
       <use xlink:href="#m349418a153" x="124.5425" y="287.21" style="stroke: #000000; stroke-width: 0.8"/>
      </g>
     </g>
     <g id="text_11">
      <!-- 0.45 -->
      <g transform="translate(95.276875 291.009219) scale(0.1 -0.1)">
       <defs>
        <path id="DejaVuSans-35" d="M 691 4666 
L 3169 4666 
L 3169 4134 
L 1269 4134 
L 1269 2991 
Q 1406 3038 1543 3061 
Q 1681 3084 1819 3084 
Q 2600 3084 3056 2656 
Q 3513 2228 3513 1497 
Q 3513 744 3044 326 
Q 2575 -91 1722 -91 
Q 1428 -91 1123 -41 
Q 819 9 494 109 
L 494 744 
Q 775 591 1075 516 
Q 1375 441 1709 441 
Q 2250 441 2565 725 
Q 2881 1009 2881 1497 
Q 2881 1984 2565 2268 
Q 2250 2553 1709 2553 
Q 1456 2553 1204 2497 
Q 953 2441 691 2322 
L 691 4666 
z
" transform="scale(0.015625)"/>
       </defs>
       <use xlink:href="#DejaVuSans-30"/>
       <use xlink:href="#DejaVuSans-2e" transform="translate(63.623047 0)"/>
       <use xlink:href="#DejaVuSans-34" transform="translate(95.410156 0)"/>
       <use xlink:href="#DejaVuSans-35" transform="translate(159.033203 0)"/>
      </g>
     </g>
    </g>
    <g id="ytick_3">
     <g id="line2d_12">
      <g>
       <use xlink:href="#m349418a153" x="124.5425" y="265.034" style="stroke: #000000; stroke-width: 0.8"/>
      </g>
     </g>
     <g id="text_12">
      <!-- 0.50 -->
      <g transform="translate(95.276875 268.833219) scale(0.1 -0.1)">
       <use xlink:href="#DejaVuSans-30"/>
       <use xlink:href="#DejaVuSans-2e" transform="translate(63.623047 0)"/>
       <use xlink:href="#DejaVuSans-35" transform="translate(95.410156 0)"/>
       <use xlink:href="#DejaVuSans-30" transform="translate(159.033203 0)"/>
      </g>
     </g>
    </g>
    <g id="ytick_4">
     <g id="line2d_13">
      <g>
       <use xlink:href="#m349418a153" x="124.5425" y="242.858" style="stroke: #000000; stroke-width: 0.8"/>
      </g>
     </g>
     <g id="text_13">
      <!-- 0.55 -->
      <g transform="translate(95.276875 246.657219) scale(0.1 -0.1)">
       <use xlink:href="#DejaVuSans-30"/>
       <use xlink:href="#DejaVuSans-2e" transform="translate(63.623047 0)"/>
       <use xlink:href="#DejaVuSans-35" transform="translate(95.410156 0)"/>
       <use xlink:href="#DejaVuSans-35" transform="translate(159.033203 0)"/>
      </g>
     </g>
    </g>
    <g id="ytick_5">
     <g id="line2d_14">
      <g>
       <use xlink:href="#m349418a153" x="124.5425" y="220.682" style="stroke: #000000; stroke-width: 0.8"/>
      </g>
     </g>
     <g id="text_14">
      <!-- 0.60 -->
      <g transform="translate(95.276875 224.481219) scale(0.1 -0.1)">
       <defs>
        <path id="DejaVuSans-36" d="M 2113 2584 
Q 1688 2584 1439 2293 
Q 1191 2003 1191 1497 
Q 1191 994 1439 701 
Q 1688 409 2113 409 
Q 2538 409 2786 701 
Q 3034 994 3034 1497 
Q 3034 2003 2786 2293 
Q 2538 2584 2113 2584 
z
M 3366 4563 
L 3366 3988 
Q 3128 4100 2886 4159 
Q 2644 4219 2406 4219 
Q 1781 4219 1451 3797 
Q 1122 3375 1075 2522 
Q 1259 2794 1537 2939 
Q 1816 3084 2150 3084 
Q 2853 3084 3261 2657 
Q 3669 2231 3669 1497 
Q 3669 778 3244 343 
Q 2819 -91 2113 -91 
Q 1303 -91 875 529 
Q 447 1150 447 2328 
Q 447 3434 972 4092 
Q 1497 4750 2381 4750 
Q 2619 4750 2861 4703 
Q 3103 4656 3366 4563 
z
" transform="scale(0.015625)"/>
       </defs>
       <use xlink:href="#DejaVuSans-30"/>
       <use xlink:href="#DejaVuSans-2e" transform="translate(63.623047 0)"/>
       <use xlink:href="#DejaVuSans-36" transform="translate(95.410156 0)"/>
       <use xlink:href="#DejaVuSans-30" transform="translate(159.033203 0)"/>
      </g>
     </g>
    </g>
    <g id="ytick_6">
     <g id="line2d_15">
      <g>
       <use xlink:href="#m349418a153" x="124.5425" y="198.506" style="stroke: #000000; stroke-width: 0.8"/>
      </g>
     </g>
     <g id="text_15">
      <!-- 0.65 -->
      <g transform="translate(95.276875 202.305219) scale(0.1 -0.1)">
       <use xlink:href="#DejaVuSans-30"/>
       <use xlink:href="#DejaVuSans-2e" transform="translate(63.623047 0)"/>
       <use xlink:href="#DejaVuSans-36" transform="translate(95.410156 0)"/>
       <use xlink:href="#DejaVuSans-35" transform="translate(159.033203 0)"/>
      </g>
     </g>
    </g>
    <g id="ytick_7">
     <g id="line2d_16">
      <g>
       <use xlink:href="#m349418a153" x="124.5425" y="176.33" style="stroke: #000000; stroke-width: 0.8"/>
      </g>
     </g>
     <g id="text_16">
      <!-- 0.70 -->
      <g transform="translate(95.276875 180.129219) scale(0.1 -0.1)">
       <defs>
        <path id="DejaVuSans-37" d="M 525 4666 
L 3525 4666 
L 3525 4397 
L 1831 0 
L 1172 0 
L 2766 4134 
L 525 4134 
L 525 4666 
z
" transform="scale(0.015625)"/>
       </defs>
       <use xlink:href="#DejaVuSans-30"/>
       <use xlink:href="#DejaVuSans-2e" transform="translate(63.623047 0)"/>
       <use xlink:href="#DejaVuSans-37" transform="translate(95.410156 0)"/>
       <use xlink:href="#DejaVuSans-30" transform="translate(159.033203 0)"/>
      </g>
     </g>
    </g>
    <g id="ytick_8">
     <g id="line2d_17">
      <g>
       <use xlink:href="#m349418a153" x="124.5425" y="154.154" style="stroke: #000000; stroke-width: 0.8"/>
      </g>
     </g>
     <g id="text_17">
      <!-- 0.75 -->
      <g transform="translate(95.276875 157.953219) scale(0.1 -0.1)">
       <use xlink:href="#DejaVuSans-30"/>
       <use xlink:href="#DejaVuSans-2e" transform="translate(63.623047 0)"/>
       <use xlink:href="#DejaVuSans-37" transform="translate(95.410156 0)"/>
       <use xlink:href="#DejaVuSans-35" transform="translate(159.033203 0)"/>
      </g>
     </g>
    </g>
    <g id="ytick_9">
     <g id="line2d_18">
      <g>
       <use xlink:href="#m349418a153" x="124.5425" y="131.978" style="stroke: #000000; stroke-width: 0.8"/>
      </g>
     </g>
     <g id="text_18">
      <!-- 0.80 -->
      <g transform="translate(95.276875 135.777219) scale(0.1 -0.1)">
       <defs>
        <path id="DejaVuSans-38" d="M 2034 2216 
Q 1584 2216 1326 1975 
Q 1069 1734 1069 1313 
Q 1069 891 1326 650 
Q 1584 409 2034 409 
Q 2484 409 2743 651 
Q 3003 894 3003 1313 
Q 3003 1734 2745 1975 
Q 2488 2216 2034 2216 
z
M 1403 2484 
Q 997 2584 770 2862 
Q 544 3141 544 3541 
Q 544 4100 942 4425 
Q 1341 4750 2034 4750 
Q 2731 4750 3128 4425 
Q 3525 4100 3525 3541 
Q 3525 3141 3298 2862 
Q 3072 2584 2669 2484 
Q 3125 2378 3379 2068 
Q 3634 1759 3634 1313 
Q 3634 634 3220 271 
Q 2806 -91 2034 -91 
Q 1263 -91 848 271 
Q 434 634 434 1313 
Q 434 1759 690 2068 
Q 947 2378 1403 2484 
z
M 1172 3481 
Q 1172 3119 1398 2916 
Q 1625 2713 2034 2713 
Q 2441 2713 2670 2916 
Q 2900 3119 2900 3481 
Q 2900 3844 2670 4047 
Q 2441 4250 2034 4250 
Q 1625 4250 1398 4047 
Q 1172 3844 1172 3481 
z
" transform="scale(0.015625)"/>
       </defs>
       <use xlink:href="#DejaVuSans-30"/>
       <use xlink:href="#DejaVuSans-2e" transform="translate(63.623047 0)"/>
       <use xlink:href="#DejaVuSans-38" transform="translate(95.410156 0)"/>
       <use xlink:href="#DejaVuSans-30" transform="translate(159.033203 0)"/>
      </g>
     </g>
    </g>
    <g id="ytick_10">
     <g id="line2d_19">
      <g>
       <use xlink:href="#m349418a153" x="124.5425" y="109.802" style="stroke: #000000; stroke-width: 0.8"/>
      </g>
     </g>
     <g id="text_19">
      <!-- 0.85 -->
      <g transform="translate(95.276875 113.601219) scale(0.1 -0.1)">
       <use xlink:href="#DejaVuSans-30"/>
       <use xlink:href="#DejaVuSans-2e" transform="translate(63.623047 0)"/>
       <use xlink:href="#DejaVuSans-38" transform="translate(95.410156 0)"/>
       <use xlink:href="#DejaVuSans-35" transform="translate(159.033203 0)"/>
      </g>
     </g>
    </g>
    <g id="ytick_11">
     <g id="line2d_20">
      <g>
       <use xlink:href="#m349418a153" x="124.5425" y="87.626" style="stroke: #000000; stroke-width: 0.8"/>
      </g>
     </g>
     <g id="text_20">
      <!-- 0.90 -->
      <g transform="translate(95.276875 91.425219) scale(0.1 -0.1)">
       <defs>
        <path id="DejaVuSans-39" d="M 703 97 
L 703 672 
Q 941 559 1184 500 
Q 1428 441 1663 441 
Q 2288 441 2617 861 
Q 2947 1281 2994 2138 
Q 2813 1869 2534 1725 
Q 2256 1581 1919 1581 
Q 1219 1581 811 2004 
Q 403 2428 403 3163 
Q 403 3881 828 4315 
Q 1253 4750 1959 4750 
Q 2769 4750 3195 4129 
Q 3622 3509 3622 2328 
Q 3622 1225 3098 567 
Q 2575 -91 1691 -91 
Q 1453 -91 1209 -44 
Q 966 3 703 97 
z
M 1959 2075 
Q 2384 2075 2632 2365 
Q 2881 2656 2881 3163 
Q 2881 3666 2632 3958 
Q 2384 4250 1959 4250 
Q 1534 4250 1286 3958 
Q 1038 3666 1038 3163 
Q 1038 2656 1286 2365 
Q 1534 2075 1959 2075 
z
" transform="scale(0.015625)"/>
       </defs>
       <use xlink:href="#DejaVuSans-30"/>
       <use xlink:href="#DejaVuSans-2e" transform="translate(63.623047 0)"/>
       <use xlink:href="#DejaVuSans-39" transform="translate(95.410156 0)"/>
       <use xlink:href="#DejaVuSans-30" transform="translate(159.033203 0)"/>
      </g>
     </g>
    </g>
    <g id="ytick_12">
     <g id="line2d_21">
      <g>
       <use xlink:href="#m349418a153" x="124.5425" y="65.45" style="stroke: #000000; stroke-width: 0.8"/>
      </g>
     </g>
     <g id="text_21">
      <!-- 0.95 -->
      <g transform="translate(95.276875 69.249219) scale(0.1 -0.1)">
       <use xlink:href="#DejaVuSans-30"/>
       <use xlink:href="#DejaVuSans-2e" transform="translate(63.623047 0)"/>
       <use xlink:href="#DejaVuSans-39" transform="translate(95.410156 0)"/>
       <use xlink:href="#DejaVuSans-35" transform="translate(159.033203 0)"/>
      </g>
     </g>
    </g>
    <g id="ytick_13">
     <g id="line2d_22">
      <g>
       <use xlink:href="#m349418a153" x="124.5425" y="43.274" style="stroke: #000000; stroke-width: 0.8"/>
      </g>
     </g>
     <g id="text_22">
      <!-- 1.00 -->
      <g transform="translate(95.276875 47.073219) scale(0.1 -0.1)">
       <defs>
        <path id="DejaVuSans-31" d="M 794 531 
L 1825 531 
L 1825 4091 
L 703 3866 
L 703 4441 
L 1819 4666 
L 2450 4666 
L 2450 531 
L 3481 531 
L 3481 0 
L 794 0 
L 794 531 
z
" transform="scale(0.015625)"/>
       </defs>
       <use xlink:href="#DejaVuSans-31"/>
       <use xlink:href="#DejaVuSans-2e" transform="translate(63.623047 0)"/>
       <use xlink:href="#DejaVuSans-30" transform="translate(95.410156 0)"/>
       <use xlink:href="#DejaVuSans-30" transform="translate(159.033203 0)"/>
      </g>
     </g>
    </g>
    <g id="ytick_14">
     <g id="line2d_23">
      <defs>
       <path id="mc7e7534285" d="M 0 0 
L -2 0 
" style="stroke: #000000; stroke-width: 0.6"/>
      </defs>
      <g>
       <use xlink:href="#mc7e7534285" x="124.5425" y="304.9508" style="stroke: #000000; stroke-width: 0.6"/>
      </g>
     </g>
    </g>
    <g id="ytick_15">
     <g id="line2d_24">
      <g>
       <use xlink:href="#mc7e7534285" x="124.5425" y="300.5156" style="stroke: #000000; stroke-width: 0.6"/>
      </g>
     </g>
    </g>
    <g id="ytick_16">
     <g id="line2d_25">
      <g>
       <use xlink:href="#mc7e7534285" x="124.5425" y="296.0804" style="stroke: #000000; stroke-width: 0.6"/>
      </g>
     </g>
    </g>
    <g id="ytick_17">
     <g id="line2d_26">
      <g>
       <use xlink:href="#mc7e7534285" x="124.5425" y="291.6452" style="stroke: #000000; stroke-width: 0.6"/>
      </g>
     </g>
    </g>
    <g id="ytick_18">
     <g id="line2d_27">
      <g>
       <use xlink:href="#mc7e7534285" x="124.5425" y="282.7748" style="stroke: #000000; stroke-width: 0.6"/>
      </g>
     </g>
    </g>
    <g id="ytick_19">
     <g id="line2d_28">
      <g>
       <use xlink:href="#mc7e7534285" x="124.5425" y="278.3396" style="stroke: #000000; stroke-width: 0.6"/>
      </g>
     </g>
    </g>
    <g id="ytick_20">
     <g id="line2d_29">
      <g>
       <use xlink:href="#mc7e7534285" x="124.5425" y="273.9044" style="stroke: #000000; stroke-width: 0.6"/>
      </g>
     </g>
    </g>
    <g id="ytick_21">
     <g id="line2d_30">
      <g>
       <use xlink:href="#mc7e7534285" x="124.5425" y="269.4692" style="stroke: #000000; stroke-width: 0.6"/>
      </g>
     </g>
    </g>
    <g id="ytick_22">
     <g id="line2d_31">
      <g>
       <use xlink:href="#mc7e7534285" x="124.5425" y="260.5988" style="stroke: #000000; stroke-width: 0.6"/>
      </g>
     </g>
    </g>
    <g id="ytick_23">
     <g id="line2d_32">
      <g>
       <use xlink:href="#mc7e7534285" x="124.5425" y="256.1636" style="stroke: #000000; stroke-width: 0.6"/>
      </g>
     </g>
    </g>
    <g id="ytick_24">
     <g id="line2d_33">
      <g>
       <use xlink:href="#mc7e7534285" x="124.5425" y="251.7284" style="stroke: #000000; stroke-width: 0.6"/>
      </g>
     </g>
    </g>
    <g id="ytick_25">
     <g id="line2d_34">
      <g>
       <use xlink:href="#mc7e7534285" x="124.5425" y="247.2932" style="stroke: #000000; stroke-width: 0.6"/>
      </g>
     </g>
    </g>
    <g id="ytick_26">
     <g id="line2d_35">
      <g>
       <use xlink:href="#mc7e7534285" x="124.5425" y="238.4228" style="stroke: #000000; stroke-width: 0.6"/>
      </g>
     </g>
    </g>
    <g id="ytick_27">
     <g id="line2d_36">
      <g>
       <use xlink:href="#mc7e7534285" x="124.5425" y="233.9876" style="stroke: #000000; stroke-width: 0.6"/>
      </g>
     </g>
    </g>
    <g id="ytick_28">
     <g id="line2d_37">
      <g>
       <use xlink:href="#mc7e7534285" x="124.5425" y="229.5524" style="stroke: #000000; stroke-width: 0.6"/>
      </g>
     </g>
    </g>
    <g id="ytick_29">
     <g id="line2d_38">
      <g>
       <use xlink:href="#mc7e7534285" x="124.5425" y="225.1172" style="stroke: #000000; stroke-width: 0.6"/>
      </g>
     </g>
    </g>
    <g id="ytick_30">
     <g id="line2d_39">
      <g>
       <use xlink:href="#mc7e7534285" x="124.5425" y="216.2468" style="stroke: #000000; stroke-width: 0.6"/>
      </g>
     </g>
    </g>
    <g id="ytick_31">
     <g id="line2d_40">
      <g>
       <use xlink:href="#mc7e7534285" x="124.5425" y="211.8116" style="stroke: #000000; stroke-width: 0.6"/>
      </g>
     </g>
    </g>
    <g id="ytick_32">
     <g id="line2d_41">
      <g>
       <use xlink:href="#mc7e7534285" x="124.5425" y="207.3764" style="stroke: #000000; stroke-width: 0.6"/>
      </g>
     </g>
    </g>
    <g id="ytick_33">
     <g id="line2d_42">
      <g>
       <use xlink:href="#mc7e7534285" x="124.5425" y="202.9412" style="stroke: #000000; stroke-width: 0.6"/>
      </g>
     </g>
    </g>
    <g id="ytick_34">
     <g id="line2d_43">
      <g>
       <use xlink:href="#mc7e7534285" x="124.5425" y="194.0708" style="stroke: #000000; stroke-width: 0.6"/>
      </g>
     </g>
    </g>
    <g id="ytick_35">
     <g id="line2d_44">
      <g>
       <use xlink:href="#mc7e7534285" x="124.5425" y="189.6356" style="stroke: #000000; stroke-width: 0.6"/>
      </g>
     </g>
    </g>
    <g id="ytick_36">
     <g id="line2d_45">
      <g>
       <use xlink:href="#mc7e7534285" x="124.5425" y="185.2004" style="stroke: #000000; stroke-width: 0.6"/>
      </g>
     </g>
    </g>
    <g id="ytick_37">
     <g id="line2d_46">
      <g>
       <use xlink:href="#mc7e7534285" x="124.5425" y="180.7652" style="stroke: #000000; stroke-width: 0.6"/>
      </g>
     </g>
    </g>
    <g id="ytick_38">
     <g id="line2d_47">
      <g>
       <use xlink:href="#mc7e7534285" x="124.5425" y="171.8948" style="stroke: #000000; stroke-width: 0.6"/>
      </g>
     </g>
    </g>
    <g id="ytick_39">
     <g id="line2d_48">
      <g>
       <use xlink:href="#mc7e7534285" x="124.5425" y="167.4596" style="stroke: #000000; stroke-width: 0.6"/>
      </g>
     </g>
    </g>
    <g id="ytick_40">
     <g id="line2d_49">
      <g>
       <use xlink:href="#mc7e7534285" x="124.5425" y="163.0244" style="stroke: #000000; stroke-width: 0.6"/>
      </g>
     </g>
    </g>
    <g id="ytick_41">
     <g id="line2d_50">
      <g>
       <use xlink:href="#mc7e7534285" x="124.5425" y="158.5892" style="stroke: #000000; stroke-width: 0.6"/>
      </g>
     </g>
    </g>
    <g id="ytick_42">
     <g id="line2d_51">
      <g>
       <use xlink:href="#mc7e7534285" x="124.5425" y="149.7188" style="stroke: #000000; stroke-width: 0.6"/>
      </g>
     </g>
    </g>
    <g id="ytick_43">
     <g id="line2d_52">
      <g>
       <use xlink:href="#mc7e7534285" x="124.5425" y="145.2836" style="stroke: #000000; stroke-width: 0.6"/>
      </g>
     </g>
    </g>
    <g id="ytick_44">
     <g id="line2d_53">
      <g>
       <use xlink:href="#mc7e7534285" x="124.5425" y="140.8484" style="stroke: #000000; stroke-width: 0.6"/>
      </g>
     </g>
    </g>
    <g id="ytick_45">
     <g id="line2d_54">
      <g>
       <use xlink:href="#mc7e7534285" x="124.5425" y="136.4132" style="stroke: #000000; stroke-width: 0.6"/>
      </g>
     </g>
    </g>
    <g id="ytick_46">
     <g id="line2d_55">
      <g>
       <use xlink:href="#mc7e7534285" x="124.5425" y="127.5428" style="stroke: #000000; stroke-width: 0.6"/>
      </g>
     </g>
    </g>
    <g id="ytick_47">
     <g id="line2d_56">
      <g>
       <use xlink:href="#mc7e7534285" x="124.5425" y="123.1076" style="stroke: #000000; stroke-width: 0.6"/>
      </g>
     </g>
    </g>
    <g id="ytick_48">
     <g id="line2d_57">
      <g>
       <use xlink:href="#mc7e7534285" x="124.5425" y="118.6724" style="stroke: #000000; stroke-width: 0.6"/>
      </g>
     </g>
    </g>
    <g id="ytick_49">
     <g id="line2d_58">
      <g>
       <use xlink:href="#mc7e7534285" x="124.5425" y="114.2372" style="stroke: #000000; stroke-width: 0.6"/>
      </g>
     </g>
    </g>
    <g id="ytick_50">
     <g id="line2d_59">
      <g>
       <use xlink:href="#mc7e7534285" x="124.5425" y="105.3668" style="stroke: #000000; stroke-width: 0.6"/>
      </g>
     </g>
    </g>
    <g id="ytick_51">
     <g id="line2d_60">
      <g>
       <use xlink:href="#mc7e7534285" x="124.5425" y="100.9316" style="stroke: #000000; stroke-width: 0.6"/>
      </g>
     </g>
    </g>
    <g id="ytick_52">
     <g id="line2d_61">
      <g>
       <use xlink:href="#mc7e7534285" x="124.5425" y="96.4964" style="stroke: #000000; stroke-width: 0.6"/>
      </g>
     </g>
    </g>
    <g id="ytick_53">
     <g id="line2d_62">
      <g>
       <use xlink:href="#mc7e7534285" x="124.5425" y="92.0612" style="stroke: #000000; stroke-width: 0.6"/>
      </g>
     </g>
    </g>
    <g id="ytick_54">
     <g id="line2d_63">
      <g>
       <use xlink:href="#mc7e7534285" x="124.5425" y="83.1908" style="stroke: #000000; stroke-width: 0.6"/>
      </g>
     </g>
    </g>
    <g id="ytick_55">
     <g id="line2d_64">
      <g>
       <use xlink:href="#mc7e7534285" x="124.5425" y="78.7556" style="stroke: #000000; stroke-width: 0.6"/>
      </g>
     </g>
    </g>
    <g id="ytick_56">
     <g id="line2d_65">
      <g>
       <use xlink:href="#mc7e7534285" x="124.5425" y="74.3204" style="stroke: #000000; stroke-width: 0.6"/>
      </g>
     </g>
    </g>
    <g id="ytick_57">
     <g id="line2d_66">
      <g>
       <use xlink:href="#mc7e7534285" x="124.5425" y="69.8852" style="stroke: #000000; stroke-width: 0.6"/>
      </g>
     </g>
    </g>
    <g id="ytick_58">
     <g id="line2d_67">
      <g>
       <use xlink:href="#mc7e7534285" x="124.5425" y="61.0148" style="stroke: #000000; stroke-width: 0.6"/>
      </g>
     </g>
    </g>
    <g id="ytick_59">
     <g id="line2d_68">
      <g>
       <use xlink:href="#mc7e7534285" x="124.5425" y="56.5796" style="stroke: #000000; stroke-width: 0.6"/>
      </g>
     </g>
    </g>
    <g id="ytick_60">
     <g id="line2d_69">
      <g>
       <use xlink:href="#mc7e7534285" x="124.5425" y="52.1444" style="stroke: #000000; stroke-width: 0.6"/>
      </g>
     </g>
    </g>
    <g id="ytick_61">
     <g id="line2d_70">
      <g>
       <use xlink:href="#mc7e7534285" x="124.5425" y="47.7092" style="stroke: #000000; stroke-width: 0.6"/>
      </g>
     </g>
    </g>
    <g id="text_23">
     <!-- Balanced Accuracy -->
     <g transform="translate(72.688375 242.877031) rotate(-90) scale(0.14 -0.14)">
      <defs>
       <path id="DejaVuSans-6e" d="M 3513 2113 
L 3513 0 
L 2938 0 
L 2938 2094 
Q 2938 2591 2744 2837 
Q 2550 3084 2163 3084 
Q 1697 3084 1428 2787 
Q 1159 2491 1159 1978 
L 1159 0 
L 581 0 
L 581 3500 
L 1159 3500 
L 1159 2956 
Q 1366 3272 1645 3428 
Q 1925 3584 2291 3584 
Q 2894 3584 3203 3211 
Q 3513 2838 3513 2113 
z
" transform="scale(0.015625)"/>
       <path id="DejaVuSans-72" d="M 2631 2963 
Q 2534 3019 2420 3045 
Q 2306 3072 2169 3072 
Q 1681 3072 1420 2755 
Q 1159 2438 1159 1844 
L 1159 0 
L 581 0 
L 581 3500 
L 1159 3500 
L 1159 2956 
Q 1341 3275 1631 3429 
Q 1922 3584 2338 3584 
Q 2397 3584 2469 3576 
Q 2541 3569 2628 3553 
L 2631 2963 
z
" transform="scale(0.015625)"/>
      </defs>
      <use xlink:href="#DejaVuSans-42"/>
      <use xlink:href="#DejaVuSans-61" transform="translate(68.603516 0)"/>
      <use xlink:href="#DejaVuSans-6c" transform="translate(129.882812 0)"/>
      <use xlink:href="#DejaVuSans-61" transform="translate(157.666016 0)"/>
      <use xlink:href="#DejaVuSans-6e" transform="translate(218.945312 0)"/>
      <use xlink:href="#DejaVuSans-63" transform="translate(282.324219 0)"/>
      <use xlink:href="#DejaVuSans-65" transform="translate(337.304688 0)"/>
      <use xlink:href="#DejaVuSans-64" transform="translate(398.828125 0)"/>
      <use xlink:href="#DejaVuSans-20" transform="translate(462.304688 0)"/>
      <use xlink:href="#DejaVuSans-41" transform="translate(494.091797 0)"/>
      <use xlink:href="#DejaVuSans-63" transform="translate(560.75 0)"/>
      <use xlink:href="#DejaVuSans-63" transform="translate(615.730469 0)"/>
      <use xlink:href="#DejaVuSans-75" transform="translate(670.710938 0)"/>
      <use xlink:href="#DejaVuSans-72" transform="translate(734.089844 0)"/>
      <use xlink:href="#DejaVuSans-61" transform="translate(775.203125 0)"/>
      <use xlink:href="#DejaVuSans-63" transform="translate(836.482422 0)"/>
      <use xlink:href="#DejaVuSans-79" transform="translate(891.462891 0)"/>
     </g>
     <!-- Adjusted for Chance -->
     <g transform="translate(88.365313 247.243281) rotate(-90) scale(0.14 -0.14)">
      <defs>
       <path id="DejaVuSans-66" d="M 2375 4863 
L 2375 4384 
L 1825 4384 
Q 1516 4384 1395 4259 
Q 1275 4134 1275 3809 
L 1275 3500 
L 2222 3500 
L 2222 3053 
L 1275 3053 
L 1275 0 
L 697 0 
L 697 3053 
L 147 3053 
L 147 3500 
L 697 3500 
L 697 3744 
Q 697 4328 969 4595 
Q 1241 4863 1831 4863 
L 2375 4863 
z
" transform="scale(0.015625)"/>
       <path id="DejaVuSans-43" d="M 4122 4306 
L 4122 3641 
Q 3803 3938 3442 4084 
Q 3081 4231 2675 4231 
Q 1875 4231 1450 3742 
Q 1025 3253 1025 2328 
Q 1025 1406 1450 917 
Q 1875 428 2675 428 
Q 3081 428 3442 575 
Q 3803 722 4122 1019 
L 4122 359 
Q 3791 134 3420 21 
Q 3050 -91 2638 -91 
Q 1578 -91 968 557 
Q 359 1206 359 2328 
Q 359 3453 968 4101 
Q 1578 4750 2638 4750 
Q 3056 4750 3426 4639 
Q 3797 4528 4122 4306 
z
" transform="scale(0.015625)"/>
      </defs>
      <use xlink:href="#DejaVuSans-41"/>
      <use xlink:href="#DejaVuSans-64" transform="translate(66.658203 0)"/>
      <use xlink:href="#DejaVuSans-6a" transform="translate(130.134766 0)"/>
      <use xlink:href="#DejaVuSans-75" transform="translate(157.917969 0)"/>
      <use xlink:href="#DejaVuSans-73" transform="translate(221.296875 0)"/>
      <use xlink:href="#DejaVuSans-74" transform="translate(273.396484 0)"/>
      <use xlink:href="#DejaVuSans-65" transform="translate(312.605469 0)"/>
      <use xlink:href="#DejaVuSans-64" transform="translate(374.128906 0)"/>
      <use xlink:href="#DejaVuSans-20" transform="translate(437.605469 0)"/>
      <use xlink:href="#DejaVuSans-66" transform="translate(469.392578 0)"/>
      <use xlink:href="#DejaVuSans-6f" transform="translate(504.597656 0)"/>
      <use xlink:href="#DejaVuSans-72" transform="translate(565.779297 0)"/>
      <use xlink:href="#DejaVuSans-20" transform="translate(606.892578 0)"/>
      <use xlink:href="#DejaVuSans-43" transform="translate(638.679688 0)"/>
      <use xlink:href="#DejaVuSans-68" transform="translate(708.503906 0)"/>
      <use xlink:href="#DejaVuSans-61" transform="translate(771.882812 0)"/>
      <use xlink:href="#DejaVuSans-6e" transform="translate(833.162109 0)"/>
      <use xlink:href="#DejaVuSans-63" transform="translate(896.541016 0)"/>
      <use xlink:href="#DejaVuSans-65" transform="translate(951.521484 0)"/>
     </g>
    </g>
   </g>
   <g id="patch_3">
    <path d="M 134.4625 224.849053 
L 154.3025 224.849053 
L 154.3025 203.095725 
L 134.4625 203.095725 
L 134.4625 224.849053 
z
" clip-path="url(#p831c70df89)" style="fill: #ffe4b5; stroke: #000000; stroke-linejoin: miter"/>
   </g>
   <g id="line2d_71">
    <path d="M 144.3825 224.849053 
L 144.3825 253.190593 
" clip-path="url(#p831c70df89)" style="fill: none; stroke: #000000; stroke-linecap: square"/>
   </g>
   <g id="line2d_72">
    <path d="M 144.3825 203.095725 
L 144.3825 184.591539 
" clip-path="url(#p831c70df89)" style="fill: none; stroke: #000000; stroke-linecap: square"/>
   </g>
   <g id="line2d_73">
    <path d="M 139.4225 253.190593 
L 149.3425 253.190593 
" clip-path="url(#p831c70df89)" style="fill: none; stroke: #000000; stroke-linecap: square"/>
   </g>
   <g id="line2d_74">
    <path d="M 139.4225 184.591539 
L 149.3425 184.591539 
" clip-path="url(#p831c70df89)" style="fill: none; stroke: #000000; stroke-linecap: square"/>
   </g>
   <g id="line2d_75">
    <defs>
     <path id="m7c2958b47a" d="M 0 3 
C 0.795609 3 1.55874 2.683901 2.12132 2.12132 
C 2.683901 1.55874 3 0.795609 3 0 
C 3 -0.795609 2.683901 -1.55874 2.12132 -2.12132 
C 1.55874 -2.683901 0.795609 -3 0 -3 
C -0.795609 -3 -1.55874 -2.683901 -2.12132 -2.12132 
C -2.683901 -1.55874 -3 -0.795609 -3 0 
C -3 0.795609 -2.683901 1.55874 -2.12132 2.12132 
C -1.55874 2.683901 -0.795609 3 0 3 
z
" style="stroke: #000000"/>
    </defs>
    <g clip-path="url(#p831c70df89)">
     <use xlink:href="#m7c2958b47a" x="144.3825" y="259.891162" style="fill-opacity: 0; stroke: #000000"/>
    </g>
   </g>
   <g id="patch_4">
    <path d="M 174.1425 173.543039 
L 193.9825 173.543039 
L 193.9825 155.412421 
L 174.1425 155.412421 
L 174.1425 173.543039 
z
" clip-path="url(#p831c70df89)" style="fill: #ffe4b5; stroke: #000000; stroke-linejoin: miter"/>
   </g>
   <g id="line2d_76">
    <path d="M 184.0625 173.543039 
L 184.0625 192.919013 
" clip-path="url(#p831c70df89)" style="fill: none; stroke: #000000; stroke-linecap: square"/>
   </g>
   <g id="line2d_77">
    <path d="M 184.0625 155.412421 
L 184.0625 142.026225 
" clip-path="url(#p831c70df89)" style="fill: none; stroke: #000000; stroke-linecap: square"/>
   </g>
   <g id="line2d_78">
    <path d="M 179.1025 192.919013 
L 189.0225 192.919013 
" clip-path="url(#p831c70df89)" style="fill: none; stroke: #000000; stroke-linecap: square"/>
   </g>
   <g id="line2d_79">
    <path d="M 179.1025 142.026225 
L 189.0225 142.026225 
" clip-path="url(#p831c70df89)" style="fill: none; stroke: #000000; stroke-linecap: square"/>
   </g>
   <g id="line2d_80">
    <g clip-path="url(#p831c70df89)">
     <use xlink:href="#m7c2958b47a" x="184.0625" y="127.783625" style="fill-opacity: 0; stroke: #000000"/>
     <use xlink:href="#m7c2958b47a" x="184.0625" y="125.071503" style="fill-opacity: 0; stroke: #000000"/>
     <use xlink:href="#m7c2958b47a" x="184.0625" y="127.92664" style="fill-opacity: 0; stroke: #000000"/>
    </g>
   </g>
   <g id="patch_5">
    <path d="M 213.8225 277.802713 
L 233.6625 277.802713 
L 233.6625 264.350614 
L 213.8225 264.350614 
L 213.8225 277.802713 
z
" clip-path="url(#p831c70df89)" style="fill: #f08080; stroke: #000000; stroke-linejoin: miter"/>
   </g>
   <g id="line2d_81">
    <path d="M 223.7425 277.802713 
L 223.7425 295.198199 
" clip-path="url(#p831c70df89)" style="fill: none; stroke: #000000; stroke-linecap: square"/>
   </g>
   <g id="line2d_82">
    <path d="M 223.7425 264.350614 
L 223.7425 250.728977 
" clip-path="url(#p831c70df89)" style="fill: none; stroke: #000000; stroke-linecap: square"/>
   </g>
   <g id="line2d_83">
    <path d="M 218.7825 295.198199 
L 228.7025 295.198199 
" clip-path="url(#p831c70df89)" style="fill: none; stroke: #000000; stroke-linecap: square"/>
   </g>
   <g id="line2d_84">
    <path d="M 218.7825 250.728977 
L 228.7025 250.728977 
" clip-path="url(#p831c70df89)" style="fill: none; stroke: #000000; stroke-linecap: square"/>
   </g>
   <g id="line2d_85"/>
   <g id="patch_6">
    <path d="M 253.5025 221.000149 
L 273.3425 221.000149 
L 273.3425 202.0904 
L 253.5025 202.0904 
L 253.5025 221.000149 
z
" clip-path="url(#p831c70df89)" style="fill: #f08080; stroke: #000000; stroke-linejoin: miter"/>
   </g>
   <g id="line2d_86">
    <path d="M 263.4225 221.000149 
L 263.4225 247.285471 
" clip-path="url(#p831c70df89)" style="fill: none; stroke: #000000; stroke-linecap: square"/>
   </g>
   <g id="line2d_87">
    <path d="M 263.4225 202.0904 
L 263.4225 177.816753 
" clip-path="url(#p831c70df89)" style="fill: none; stroke: #000000; stroke-linecap: square"/>
   </g>
   <g id="line2d_88">
    <path d="M 258.4625 247.285471 
L 268.3825 247.285471 
" clip-path="url(#p831c70df89)" style="fill: none; stroke: #000000; stroke-linecap: square"/>
   </g>
   <g id="line2d_89">
    <path d="M 258.4625 177.816753 
L 268.3825 177.816753 
" clip-path="url(#p831c70df89)" style="fill: none; stroke: #000000; stroke-linecap: square"/>
   </g>
   <g id="line2d_90"/>
   <g id="patch_7">
    <path d="M 293.1825 258.212812 
L 313.0225 258.212812 
L 313.0225 235.759529 
L 293.1825 235.759529 
L 293.1825 258.212812 
z
" clip-path="url(#p831c70df89)" style="fill: #f08080; stroke: #000000; stroke-linejoin: miter"/>
   </g>
   <g id="line2d_91">
    <path d="M 303.1025 258.212812 
L 303.1025 276.590996 
" clip-path="url(#p831c70df89)" style="fill: none; stroke: #000000; stroke-linecap: square"/>
   </g>
   <g id="line2d_92">
    <path d="M 303.1025 235.759529 
L 303.1025 209.226395 
" clip-path="url(#p831c70df89)" style="fill: none; stroke: #000000; stroke-linecap: square"/>
   </g>
   <g id="line2d_93">
    <path d="M 298.1425 276.590996 
L 308.0625 276.590996 
" clip-path="url(#p831c70df89)" style="fill: none; stroke: #000000; stroke-linecap: square"/>
   </g>
   <g id="line2d_94">
    <path d="M 298.1425 209.226395 
L 308.0625 209.226395 
" clip-path="url(#p831c70df89)" style="fill: none; stroke: #000000; stroke-linecap: square"/>
   </g>
   <g id="line2d_95"/>
   <g id="patch_8">
    <path d="M 332.8625 103.281448 
L 352.7025 103.281448 
L 352.7025 87.101794 
L 332.8625 87.101794 
L 332.8625 103.281448 
z
" clip-path="url(#p831c70df89)" style="fill: #f08080; stroke: #000000; stroke-linejoin: miter"/>
   </g>
   <g id="line2d_96">
    <path d="M 342.7825 103.281448 
L 342.7825 117.712403 
" clip-path="url(#p831c70df89)" style="fill: none; stroke: #000000; stroke-linecap: square"/>
   </g>
   <g id="line2d_97">
    <path d="M 342.7825 87.101794 
L 342.7825 74.250783 
" clip-path="url(#p831c70df89)" style="fill: none; stroke: #000000; stroke-linecap: square"/>
   </g>
   <g id="line2d_98">
    <path d="M 337.8225 117.712403 
L 347.7425 117.712403 
" clip-path="url(#p831c70df89)" style="fill: none; stroke: #000000; stroke-linecap: square"/>
   </g>
   <g id="line2d_99">
    <path d="M 337.8225 74.250783 
L 347.7425 74.250783 
" clip-path="url(#p831c70df89)" style="fill: none; stroke: #000000; stroke-linecap: square"/>
   </g>
   <g id="line2d_100">
    <g clip-path="url(#p831c70df89)">
     <use xlink:href="#m7c2958b47a" x="342.7825" y="130.380154" style="fill-opacity: 0; stroke: #000000"/>
    </g>
   </g>
   <g id="patch_9">
    <path d="M 372.5425 102.684182 
L 392.3825 102.684182 
L 392.3825 88.565067 
L 372.5425 88.565067 
L 372.5425 102.684182 
z
" clip-path="url(#p831c70df89)" style="fill: #87ceeb; stroke: #000000; stroke-linejoin: miter"/>
   </g>
   <g id="line2d_101">
    <path d="M 382.4625 102.684182 
L 382.4625 123.276647 
" clip-path="url(#p831c70df89)" style="fill: none; stroke: #000000; stroke-linecap: square"/>
   </g>
   <g id="line2d_102">
    <path d="M 382.4625 88.565067 
L 382.4625 75.205237 
" clip-path="url(#p831c70df89)" style="fill: none; stroke: #000000; stroke-linecap: square"/>
   </g>
   <g id="line2d_103">
    <path d="M 377.5025 123.276647 
L 387.4225 123.276647 
" clip-path="url(#p831c70df89)" style="fill: none; stroke: #000000; stroke-linecap: square"/>
   </g>
   <g id="line2d_104">
    <path d="M 377.5025 75.205237 
L 387.4225 75.205237 
" clip-path="url(#p831c70df89)" style="fill: none; stroke: #000000; stroke-linecap: square"/>
   </g>
   <g id="line2d_105">
    <g clip-path="url(#p831c70df89)">
     <use xlink:href="#m7c2958b47a" x="382.4625" y="128.738627" style="fill-opacity: 0; stroke: #000000"/>
     <use xlink:href="#m7c2958b47a" x="382.4625" y="125.025865" style="fill-opacity: 0; stroke: #000000"/>
    </g>
   </g>
   <g id="patch_10">
    <path d="M 412.2225 83.930576 
L 432.0625 83.930576 
L 432.0625 70.324811 
L 412.2225 70.324811 
L 412.2225 83.930576 
z
" clip-path="url(#p831c70df89)" style="fill: #87ceeb; stroke: #000000; stroke-linejoin: miter"/>
   </g>
   <g id="line2d_106">
    <path d="M 422.1425 83.930576 
L 422.1425 102.36497 
" clip-path="url(#p831c70df89)" style="fill: none; stroke: #000000; stroke-linecap: square"/>
   </g>
   <g id="line2d_107">
    <path d="M 422.1425 70.324811 
L 422.1425 62.504807 
" clip-path="url(#p831c70df89)" style="fill: none; stroke: #000000; stroke-linecap: square"/>
   </g>
   <g id="line2d_108">
    <path d="M 417.1825 102.36497 
L 427.1025 102.36497 
" clip-path="url(#p831c70df89)" style="fill: none; stroke: #000000; stroke-linecap: square"/>
   </g>
   <g id="line2d_109">
    <path d="M 417.1825 62.504807 
L 427.1025 62.504807 
" clip-path="url(#p831c70df89)" style="fill: none; stroke: #000000; stroke-linecap: square"/>
   </g>
   <g id="line2d_110"/>
   <g id="patch_11">
    <path d="M 451.9025 85.55568 
L 471.7425 85.55568 
L 471.7425 72.399388 
L 451.9025 72.399388 
L 451.9025 85.55568 
z
" clip-path="url(#p831c70df89)" style="fill: #87ceeb; stroke: #000000; stroke-linejoin: miter"/>
   </g>
   <g id="line2d_111">
    <path d="M 461.8225 85.55568 
L 461.8225 103.725396 
" clip-path="url(#p831c70df89)" style="fill: none; stroke: #000000; stroke-linecap: square"/>
   </g>
   <g id="line2d_112">
    <path d="M 461.8225 72.399388 
L 461.8225 66.774958 
" clip-path="url(#p831c70df89)" style="fill: none; stroke: #000000; stroke-linecap: square"/>
   </g>
   <g id="line2d_113">
    <path d="M 456.8625 103.725396 
L 466.7825 103.725396 
" clip-path="url(#p831c70df89)" style="fill: none; stroke: #000000; stroke-linecap: square"/>
   </g>
   <g id="line2d_114">
    <path d="M 456.8625 66.774958 
L 466.7825 66.774958 
" clip-path="url(#p831c70df89)" style="fill: none; stroke: #000000; stroke-linecap: square"/>
   </g>
   <g id="line2d_115"/>
   <g id="line2d_116">
    <path d="M 134.4625 210.458715 
L 154.3025 210.458715 
" clip-path="url(#p831c70df89)" style="fill: none; stroke: #000000"/>
   </g>
   <g id="line2d_117">
    <path d="M 174.1425 161.174795 
L 193.9825 161.174795 
" clip-path="url(#p831c70df89)" style="fill: none; stroke: #000000"/>
   </g>
   <g id="line2d_118">
    <path d="M 213.8225 273.661106 
L 233.6625 273.661106 
" clip-path="url(#p831c70df89)" style="fill: none; stroke: #000000"/>
   </g>
   <g id="line2d_119">
    <path d="M 253.5025 212.535199 
L 273.3425 212.535199 
" clip-path="url(#p831c70df89)" style="fill: none; stroke: #000000"/>
   </g>
   <g id="line2d_120">
    <path d="M 293.1825 246.397059 
L 313.0225 246.397059 
" clip-path="url(#p831c70df89)" style="fill: none; stroke: #000000"/>
   </g>
   <g id="line2d_121">
    <path d="M 332.8625 92.30871 
L 352.7025 92.30871 
" clip-path="url(#p831c70df89)" style="fill: none; stroke: #000000"/>
   </g>
   <g id="line2d_122">
    <path d="M 372.5425 98.459055 
L 392.3825 98.459055 
" clip-path="url(#p831c70df89)" style="fill: none; stroke: #000000"/>
   </g>
   <g id="line2d_123">
    <path d="M 412.2225 75.615064 
L 432.0625 75.615064 
" clip-path="url(#p831c70df89)" style="fill: none; stroke: #000000"/>
   </g>
   <g id="line2d_124">
    <path d="M 451.9025 78.863323 
L 471.7425 78.863323 
" clip-path="url(#p831c70df89)" style="fill: none; stroke: #000000"/>
   </g>
   <g id="patch_12">
    <path d="M 124.5425 309.386 
L 124.5425 43.274 
" style="fill: none; stroke: #000000; stroke-width: 0.8; stroke-linejoin: miter; stroke-linecap: square"/>
   </g>
   <g id="patch_13">
    <path d="M 481.6625 309.386 
L 481.6625 43.274 
" style="fill: none; stroke: #000000; stroke-width: 0.8; stroke-linejoin: miter; stroke-linecap: square"/>
   </g>
   <g id="patch_14">
    <path d="M 124.5425 309.386 
L 481.6625 309.386 
" style="fill: none; stroke: #000000; stroke-width: 0.8; stroke-linejoin: miter; stroke-linecap: square"/>
   </g>
   <g id="patch_15">
    <path d="M 124.5425 43.274 
L 481.6625 43.274 
" style="fill: none; stroke: #000000; stroke-width: 0.8; stroke-linejoin: miter; stroke-linecap: square"/>
   </g>
   <g id="text_24">
    <!-- Comparison of the Balanced Accuracy Adjusted for Chance of Assignment -->
    <g transform="translate(7.2 19.3575) scale(0.16 -0.16)">
     <defs>
      <path id="DejaVuSans-6d" d="M 3328 2828 
Q 3544 3216 3844 3400 
Q 4144 3584 4550 3584 
Q 5097 3584 5394 3201 
Q 5691 2819 5691 2113 
L 5691 0 
L 5113 0 
L 5113 2094 
Q 5113 2597 4934 2840 
Q 4756 3084 4391 3084 
Q 3944 3084 3684 2787 
Q 3425 2491 3425 1978 
L 3425 0 
L 2847 0 
L 2847 2094 
Q 2847 2600 2669 2842 
Q 2491 3084 2119 3084 
Q 1678 3084 1418 2786 
Q 1159 2488 1159 1978 
L 1159 0 
L 581 0 
L 581 3500 
L 1159 3500 
L 1159 2956 
Q 1356 3278 1631 3431 
Q 1906 3584 2284 3584 
Q 2666 3584 2933 3390 
Q 3200 3197 3328 2828 
z
" transform="scale(0.015625)"/>
      <path id="DejaVuSans-67" d="M 2906 1791 
Q 2906 2416 2648 2759 
Q 2391 3103 1925 3103 
Q 1463 3103 1205 2759 
Q 947 2416 947 1791 
Q 947 1169 1205 825 
Q 1463 481 1925 481 
Q 2391 481 2648 825 
Q 2906 1169 2906 1791 
z
M 3481 434 
Q 3481 -459 3084 -895 
Q 2688 -1331 1869 -1331 
Q 1566 -1331 1297 -1286 
Q 1028 -1241 775 -1147 
L 775 -588 
Q 1028 -725 1275 -790 
Q 1522 -856 1778 -856 
Q 2344 -856 2625 -561 
Q 2906 -266 2906 331 
L 2906 616 
Q 2728 306 2450 153 
Q 2172 0 1784 0 
Q 1141 0 747 490 
Q 353 981 353 1791 
Q 353 2603 747 3093 
Q 1141 3584 1784 3584 
Q 2172 3584 2450 3431 
Q 2728 3278 2906 2969 
L 2906 3500 
L 3481 3500 
L 3481 434 
z
" transform="scale(0.015625)"/>
     </defs>
     <use xlink:href="#DejaVuSans-43"/>
     <use xlink:href="#DejaVuSans-6f" transform="translate(69.824219 0)"/>
     <use xlink:href="#DejaVuSans-6d" transform="translate(131.005859 0)"/>
     <use xlink:href="#DejaVuSans-70" transform="translate(228.417969 0)"/>
     <use xlink:href="#DejaVuSans-61" transform="translate(291.894531 0)"/>
     <use xlink:href="#DejaVuSans-72" transform="translate(353.173828 0)"/>
     <use xlink:href="#DejaVuSans-69" transform="translate(394.287109 0)"/>
     <use xlink:href="#DejaVuSans-73" transform="translate(422.070312 0)"/>
     <use xlink:href="#DejaVuSans-6f" transform="translate(474.169922 0)"/>
     <use xlink:href="#DejaVuSans-6e" transform="translate(535.351562 0)"/>
     <use xlink:href="#DejaVuSans-20" transform="translate(598.730469 0)"/>
     <use xlink:href="#DejaVuSans-6f" transform="translate(630.517578 0)"/>
     <use xlink:href="#DejaVuSans-66" transform="translate(691.699219 0)"/>
     <use xlink:href="#DejaVuSans-20" transform="translate(726.904297 0)"/>
     <use xlink:href="#DejaVuSans-74" transform="translate(758.691406 0)"/>
     <use xlink:href="#DejaVuSans-68" transform="translate(797.900391 0)"/>
     <use xlink:href="#DejaVuSans-65" transform="translate(861.279297 0)"/>
     <use xlink:href="#DejaVuSans-20" transform="translate(922.802734 0)"/>
     <use xlink:href="#DejaVuSans-42" transform="translate(954.589844 0)"/>
     <use xlink:href="#DejaVuSans-61" transform="translate(1023.193359 0)"/>
     <use xlink:href="#DejaVuSans-6c" transform="translate(1084.472656 0)"/>
     <use xlink:href="#DejaVuSans-61" transform="translate(1112.255859 0)"/>
     <use xlink:href="#DejaVuSans-6e" transform="translate(1173.535156 0)"/>
     <use xlink:href="#DejaVuSans-63" transform="translate(1236.914062 0)"/>
     <use xlink:href="#DejaVuSans-65" transform="translate(1291.894531 0)"/>
     <use xlink:href="#DejaVuSans-64" transform="translate(1353.417969 0)"/>
     <use xlink:href="#DejaVuSans-20" transform="translate(1416.894531 0)"/>
     <use xlink:href="#DejaVuSans-41" transform="translate(1448.681641 0)"/>
     <use xlink:href="#DejaVuSans-63" transform="translate(1515.339844 0)"/>
     <use xlink:href="#DejaVuSans-63" transform="translate(1570.320312 0)"/>
     <use xlink:href="#DejaVuSans-75" transform="translate(1625.300781 0)"/>
     <use xlink:href="#DejaVuSans-72" transform="translate(1688.679688 0)"/>
     <use xlink:href="#DejaVuSans-61" transform="translate(1729.792969 0)"/>
     <use xlink:href="#DejaVuSans-63" transform="translate(1791.072266 0)"/>
     <use xlink:href="#DejaVuSans-79" transform="translate(1846.052734 0)"/>
     <use xlink:href="#DejaVuSans-20" transform="translate(1905.232422 0)"/>
     <use xlink:href="#DejaVuSans-41" transform="translate(1937.019531 0)"/>
     <use xlink:href="#DejaVuSans-64" transform="translate(2003.677734 0)"/>
     <use xlink:href="#DejaVuSans-6a" transform="translate(2067.154297 0)"/>
     <use xlink:href="#DejaVuSans-75" transform="translate(2094.9375 0)"/>
     <use xlink:href="#DejaVuSans-73" transform="translate(2158.316406 0)"/>
     <use xlink:href="#DejaVuSans-74" transform="translate(2210.416016 0)"/>
     <use xlink:href="#DejaVuSans-65" transform="translate(2249.625 0)"/>
     <use xlink:href="#DejaVuSans-64" transform="translate(2311.148438 0)"/>
     <use xlink:href="#DejaVuSans-20" transform="translate(2374.625 0)"/>
     <use xlink:href="#DejaVuSans-66" transform="translate(2406.412109 0)"/>
     <use xlink:href="#DejaVuSans-6f" transform="translate(2441.617188 0)"/>
     <use xlink:href="#DejaVuSans-72" transform="translate(2502.798828 0)"/>
     <use xlink:href="#DejaVuSans-20" transform="translate(2543.912109 0)"/>
     <use xlink:href="#DejaVuSans-43" transform="translate(2575.699219 0)"/>
     <use xlink:href="#DejaVuSans-68" transform="translate(2645.523438 0)"/>
     <use xlink:href="#DejaVuSans-61" transform="translate(2708.902344 0)"/>
     <use xlink:href="#DejaVuSans-6e" transform="translate(2770.181641 0)"/>
     <use xlink:href="#DejaVuSans-63" transform="translate(2833.560547 0)"/>
     <use xlink:href="#DejaVuSans-65" transform="translate(2888.541016 0)"/>
     <use xlink:href="#DejaVuSans-20" transform="translate(2950.064453 0)"/>
     <use xlink:href="#DejaVuSans-6f" transform="translate(2981.851562 0)"/>
     <use xlink:href="#DejaVuSans-66" transform="translate(3043.033203 0)"/>
     <use xlink:href="#DejaVuSans-20" transform="translate(3078.238281 0)"/>
     <use xlink:href="#DejaVuSans-41" transform="translate(3110.025391 0)"/>
     <use xlink:href="#DejaVuSans-73" transform="translate(3178.433594 0)"/>
     <use xlink:href="#DejaVuSans-73" transform="translate(3230.533203 0)"/>
     <use xlink:href="#DejaVuSans-69" transform="translate(3282.632812 0)"/>
     <use xlink:href="#DejaVuSans-67" transform="translate(3310.416016 0)"/>
     <use xlink:href="#DejaVuSans-6e" transform="translate(3373.892578 0)"/>
     <use xlink:href="#DejaVuSans-6d" transform="translate(3437.271484 0)"/>
     <use xlink:href="#DejaVuSans-65" transform="translate(3534.683594 0)"/>
     <use xlink:href="#DejaVuSans-6e" transform="translate(3596.207031 0)"/>
     <use xlink:href="#DejaVuSans-74" transform="translate(3659.585938 0)"/>
    </g>
    <!-- between Literature and Classification Models -->
    <g transform="translate(122.9975 37.274) scale(0.16 -0.16)">
     <defs>
      <path id="DejaVuSans-77" d="M 269 3500 
L 844 3500 
L 1563 769 
L 2278 3500 
L 2956 3500 
L 3675 769 
L 4391 3500 
L 4966 3500 
L 4050 0 
L 3372 0 
L 2619 2869 
L 1863 0 
L 1184 0 
L 269 3500 
z
" transform="scale(0.015625)"/>
     </defs>
     <use xlink:href="#DejaVuSans-62"/>
     <use xlink:href="#DejaVuSans-65" transform="translate(63.476562 0)"/>
     <use xlink:href="#DejaVuSans-74" transform="translate(125 0)"/>
     <use xlink:href="#DejaVuSans-77" transform="translate(164.208984 0)"/>
     <use xlink:href="#DejaVuSans-65" transform="translate(245.996094 0)"/>
     <use xlink:href="#DejaVuSans-65" transform="translate(307.519531 0)"/>
     <use xlink:href="#DejaVuSans-6e" transform="translate(369.042969 0)"/>
     <use xlink:href="#DejaVuSans-20" transform="translate(432.421875 0)"/>
     <use xlink:href="#DejaVuSans-4c" transform="translate(464.208984 0)"/>
     <use xlink:href="#DejaVuSans-69" transform="translate(519.921875 0)"/>
     <use xlink:href="#DejaVuSans-74" transform="translate(547.705078 0)"/>
     <use xlink:href="#DejaVuSans-65" transform="translate(586.914062 0)"/>
     <use xlink:href="#DejaVuSans-72" transform="translate(648.4375 0)"/>
     <use xlink:href="#DejaVuSans-61" transform="translate(689.550781 0)"/>
     <use xlink:href="#DejaVuSans-74" transform="translate(750.830078 0)"/>
     <use xlink:href="#DejaVuSans-75" transform="translate(790.039062 0)"/>
     <use xlink:href="#DejaVuSans-72" transform="translate(853.417969 0)"/>
     <use xlink:href="#DejaVuSans-65" transform="translate(892.28125 0)"/>
     <use xlink:href="#DejaVuSans-20" transform="translate(953.804688 0)"/>
     <use xlink:href="#DejaVuSans-61" transform="translate(985.591797 0)"/>
     <use xlink:href="#DejaVuSans-6e" transform="translate(1046.871094 0)"/>
     <use xlink:href="#DejaVuSans-64" transform="translate(1110.25 0)"/>
     <use xlink:href="#DejaVuSans-20" transform="translate(1173.726562 0)"/>
     <use xlink:href="#DejaVuSans-43" transform="translate(1205.513672 0)"/>
     <use xlink:href="#DejaVuSans-6c" transform="translate(1275.337891 0)"/>
     <use xlink:href="#DejaVuSans-61" transform="translate(1303.121094 0)"/>
     <use xlink:href="#DejaVuSans-73" transform="translate(1364.400391 0)"/>
     <use xlink:href="#DejaVuSans-73" transform="translate(1416.5 0)"/>
     <use xlink:href="#DejaVuSans-69" transform="translate(1468.599609 0)"/>
     <use xlink:href="#DejaVuSans-66" transform="translate(1496.382812 0)"/>
     <use xlink:href="#DejaVuSans-69" transform="translate(1531.587891 0)"/>
     <use xlink:href="#DejaVuSans-63" transform="translate(1559.371094 0)"/>
     <use xlink:href="#DejaVuSans-61" transform="translate(1614.351562 0)"/>
     <use xlink:href="#DejaVuSans-74" transform="translate(1675.630859 0)"/>
     <use xlink:href="#DejaVuSans-69" transform="translate(1714.839844 0)"/>
     <use xlink:href="#DejaVuSans-6f" transform="translate(1742.623047 0)"/>
     <use xlink:href="#DejaVuSans-6e" transform="translate(1803.804688 0)"/>
     <use xlink:href="#DejaVuSans-20" transform="translate(1867.183594 0)"/>
     <use xlink:href="#DejaVuSans-4d" transform="translate(1898.970703 0)"/>
     <use xlink:href="#DejaVuSans-6f" transform="translate(1985.25 0)"/>
     <use xlink:href="#DejaVuSans-64" transform="translate(2046.431641 0)"/>
     <use xlink:href="#DejaVuSans-65" transform="translate(2109.908203 0)"/>
     <use xlink:href="#DejaVuSans-6c" transform="translate(2171.431641 0)"/>
     <use xlink:href="#DejaVuSans-73" transform="translate(2199.214844 0)"/>
    </g>
   </g>
   <g id="legend_1">
    <g id="patch_16">
     <path d="M 491.2049 126.59 
L 672.114275 126.59 
Q 674.514275 126.59 674.514275 124.19 
L 674.514275 45.674 
Q 674.514275 43.274 672.114275 43.274 
L 491.2049 43.274 
Q 488.8049 43.274 488.8049 45.674 
L 488.8049 124.19 
Q 488.8049 126.59 491.2049 126.59 
z
" style="fill: #ffffff; stroke: #cccccc; stroke-linejoin: miter"/>
    </g>
    <g id="PathCollection_4">
     <defs>
      <path id="mf5993ff9d2" d="M 0 3 
C 0.795609 3 1.55874 2.683901 2.12132 2.12132 
C 2.683901 1.55874 3 0.795609 3 0 
C 3 -0.795609 2.683901 -1.55874 2.12132 -2.12132 
C 1.55874 -2.683901 0.795609 -3 0 -3 
C -0.795609 -3 -1.55874 -2.683901 -2.12132 -2.12132 
C -2.683901 -1.55874 -3 -0.795609 -3 0 
C -3 0.795609 -2.683901 1.55874 -2.12132 2.12132 
C -1.55874 2.683901 -0.795609 3 0 3 
z
" style="stroke: #000000"/>
     </defs>
     <g>
      <use xlink:href="#mf5993ff9d2" x="505.6049" y="54.042125" style="fill: #ffe4b5; stroke: #000000"/>
     </g>
    </g>
    <g id="text_25">
     <!-- Literature Models -->
     <g transform="translate(527.2049 57.192125) scale(0.12 -0.12)">
      <use xlink:href="#DejaVuSans-4c"/>
      <use xlink:href="#DejaVuSans-69" transform="translate(55.712891 0)"/>
      <use xlink:href="#DejaVuSans-74" transform="translate(83.496094 0)"/>
      <use xlink:href="#DejaVuSans-65" transform="translate(122.705078 0)"/>
      <use xlink:href="#DejaVuSans-72" transform="translate(184.228516 0)"/>
      <use xlink:href="#DejaVuSans-61" transform="translate(225.341797 0)"/>
      <use xlink:href="#DejaVuSans-74" transform="translate(286.621094 0)"/>
      <use xlink:href="#DejaVuSans-75" transform="translate(325.830078 0)"/>
      <use xlink:href="#DejaVuSans-72" transform="translate(389.208984 0)"/>
      <use xlink:href="#DejaVuSans-65" transform="translate(428.072266 0)"/>
      <use xlink:href="#DejaVuSans-20" transform="translate(489.595703 0)"/>
      <use xlink:href="#DejaVuSans-4d" transform="translate(521.382812 0)"/>
      <use xlink:href="#DejaVuSans-6f" transform="translate(607.662109 0)"/>
      <use xlink:href="#DejaVuSans-64" transform="translate(668.84375 0)"/>
      <use xlink:href="#DejaVuSans-65" transform="translate(732.320312 0)"/>
      <use xlink:href="#DejaVuSans-6c" transform="translate(793.84375 0)"/>
      <use xlink:href="#DejaVuSans-73" transform="translate(821.626953 0)"/>
     </g>
    </g>
    <g id="PathCollection_5">
     <defs>
      <path id="mcfc202e9db" d="M 0 3 
C 0.795609 3 1.55874 2.683901 2.12132 2.12132 
C 2.683901 1.55874 3 0.795609 3 0 
C 3 -0.795609 2.683901 -1.55874 2.12132 -2.12132 
C 1.55874 -2.683901 0.795609 -3 0 -3 
C -0.795609 -3 -1.55874 -2.683901 -2.12132 -2.12132 
C -2.683901 -1.55874 -3 -0.795609 -3 0 
C -3 0.795609 -2.683901 1.55874 -2.12132 2.12132 
C -1.55874 2.683901 -0.795609 3 0 3 
z
" style="stroke: #000000"/>
     </defs>
     <g>
      <use xlink:href="#mcfc202e9db" x="505.6049" y="79.622375" style="fill: #87ceeb; stroke: #000000"/>
     </g>
    </g>
    <g id="text_26">
     <!-- Weighted Supervised -->
     <g transform="translate(527.2049 74.805875) scale(0.12 -0.12)">
      <use xlink:href="#DejaVuSans-57"/>
      <use xlink:href="#DejaVuSans-65" transform="translate(93.001953 0)"/>
      <use xlink:href="#DejaVuSans-69" transform="translate(154.525391 0)"/>
      <use xlink:href="#DejaVuSans-67" transform="translate(182.308594 0)"/>
      <use xlink:href="#DejaVuSans-68" transform="translate(245.785156 0)"/>
      <use xlink:href="#DejaVuSans-74" transform="translate(309.164062 0)"/>
      <use xlink:href="#DejaVuSans-65" transform="translate(348.373047 0)"/>
      <use xlink:href="#DejaVuSans-64" transform="translate(409.896484 0)"/>
      <use xlink:href="#DejaVuSans-20" transform="translate(473.373047 0)"/>
      <use xlink:href="#DejaVuSans-53" transform="translate(505.160156 0)"/>
      <use xlink:href="#DejaVuSans-75" transform="translate(568.636719 0)"/>
      <use xlink:href="#DejaVuSans-70" transform="translate(632.015625 0)"/>
      <use xlink:href="#DejaVuSans-65" transform="translate(695.492188 0)"/>
      <use xlink:href="#DejaVuSans-72" transform="translate(757.015625 0)"/>
      <use xlink:href="#DejaVuSans-76" transform="translate(798.128906 0)"/>
      <use xlink:href="#DejaVuSans-69" transform="translate(857.308594 0)"/>
      <use xlink:href="#DejaVuSans-73" transform="translate(885.091797 0)"/>
      <use xlink:href="#DejaVuSans-65" transform="translate(937.191406 0)"/>
      <use xlink:href="#DejaVuSans-64" transform="translate(998.714844 0)"/>
     </g>
     <!-- Classifier Models -->
     <g transform="translate(527.2049 88.24325) scale(0.12 -0.12)">
      <use xlink:href="#DejaVuSans-43"/>
      <use xlink:href="#DejaVuSans-6c" transform="translate(69.824219 0)"/>
      <use xlink:href="#DejaVuSans-61" transform="translate(97.607422 0)"/>
      <use xlink:href="#DejaVuSans-73" transform="translate(158.886719 0)"/>
      <use xlink:href="#DejaVuSans-73" transform="translate(210.986328 0)"/>
      <use xlink:href="#DejaVuSans-69" transform="translate(263.085938 0)"/>
      <use xlink:href="#DejaVuSans-66" transform="translate(290.869141 0)"/>
      <use xlink:href="#DejaVuSans-69" transform="translate(326.074219 0)"/>
      <use xlink:href="#DejaVuSans-65" transform="translate(353.857422 0)"/>
      <use xlink:href="#DejaVuSans-72" transform="translate(415.380859 0)"/>
      <use xlink:href="#DejaVuSans-20" transform="translate(456.494141 0)"/>
      <use xlink:href="#DejaVuSans-4d" transform="translate(488.28125 0)"/>
      <use xlink:href="#DejaVuSans-6f" transform="translate(574.560547 0)"/>
      <use xlink:href="#DejaVuSans-64" transform="translate(635.742188 0)"/>
      <use xlink:href="#DejaVuSans-65" transform="translate(699.21875 0)"/>
      <use xlink:href="#DejaVuSans-6c" transform="translate(760.742188 0)"/>
      <use xlink:href="#DejaVuSans-73" transform="translate(788.525391 0)"/>
     </g>
    </g>
    <g id="PathCollection_6">
     <defs>
      <path id="mac4f1791a8" d="M 0 3 
C 0.795609 3 1.55874 2.683901 2.12132 2.12132 
C 2.683901 1.55874 3 0.795609 3 0 
C 3 -0.795609 2.683901 -1.55874 2.12132 -2.12132 
C 1.55874 -2.683901 0.795609 -3 0 -3 
C -0.795609 -3 -1.55874 -2.683901 -2.12132 -2.12132 
C -2.683901 -1.55874 -3 -0.795609 -3 0 
C -3 0.795609 -2.683901 1.55874 -2.12132 2.12132 
C -1.55874 2.683901 -0.795609 3 0 3 
z
" style="stroke: #000000"/>
     </defs>
     <g>
      <use xlink:href="#mac4f1791a8" x="505.6049" y="110.6735" style="fill: #f08080; stroke: #000000"/>
     </g>
    </g>
    <g id="text_27">
     <!-- Unweighted Supervised -->
     <g transform="translate(527.2049 105.857) scale(0.12 -0.12)">
      <use xlink:href="#DejaVuSans-55"/>
      <use xlink:href="#DejaVuSans-6e" transform="translate(73.193359 0)"/>
      <use xlink:href="#DejaVuSans-77" transform="translate(136.572266 0)"/>
      <use xlink:href="#DejaVuSans-65" transform="translate(218.359375 0)"/>
      <use xlink:href="#DejaVuSans-69" transform="translate(279.882812 0)"/>
      <use xlink:href="#DejaVuSans-67" transform="translate(307.666016 0)"/>
      <use xlink:href="#DejaVuSans-68" transform="translate(371.142578 0)"/>
      <use xlink:href="#DejaVuSans-74" transform="translate(434.521484 0)"/>
      <use xlink:href="#DejaVuSans-65" transform="translate(473.730469 0)"/>
      <use xlink:href="#DejaVuSans-64" transform="translate(535.253906 0)"/>
      <use xlink:href="#DejaVuSans-20" transform="translate(598.730469 0)"/>
      <use xlink:href="#DejaVuSans-53" transform="translate(630.517578 0)"/>
      <use xlink:href="#DejaVuSans-75" transform="translate(693.994141 0)"/>
      <use xlink:href="#DejaVuSans-70" transform="translate(757.373047 0)"/>
      <use xlink:href="#DejaVuSans-65" transform="translate(820.849609 0)"/>
      <use xlink:href="#DejaVuSans-72" transform="translate(882.373047 0)"/>
      <use xlink:href="#DejaVuSans-76" transform="translate(923.486328 0)"/>
      <use xlink:href="#DejaVuSans-69" transform="translate(982.666016 0)"/>
      <use xlink:href="#DejaVuSans-73" transform="translate(1010.449219 0)"/>
      <use xlink:href="#DejaVuSans-65" transform="translate(1062.548828 0)"/>
      <use xlink:href="#DejaVuSans-64" transform="translate(1124.072266 0)"/>
     </g>
     <!-- Classifier Models -->
     <g transform="translate(527.2049 119.294375) scale(0.12 -0.12)">
      <use xlink:href="#DejaVuSans-43"/>
      <use xlink:href="#DejaVuSans-6c" transform="translate(69.824219 0)"/>
      <use xlink:href="#DejaVuSans-61" transform="translate(97.607422 0)"/>
      <use xlink:href="#DejaVuSans-73" transform="translate(158.886719 0)"/>
      <use xlink:href="#DejaVuSans-73" transform="translate(210.986328 0)"/>
      <use xlink:href="#DejaVuSans-69" transform="translate(263.085938 0)"/>
      <use xlink:href="#DejaVuSans-66" transform="translate(290.869141 0)"/>
      <use xlink:href="#DejaVuSans-69" transform="translate(326.074219 0)"/>
      <use xlink:href="#DejaVuSans-65" transform="translate(353.857422 0)"/>
      <use xlink:href="#DejaVuSans-72" transform="translate(415.380859 0)"/>
      <use xlink:href="#DejaVuSans-20" transform="translate(456.494141 0)"/>
      <use xlink:href="#DejaVuSans-4d" transform="translate(488.28125 0)"/>
      <use xlink:href="#DejaVuSans-6f" transform="translate(574.560547 0)"/>
      <use xlink:href="#DejaVuSans-64" transform="translate(635.742188 0)"/>
      <use xlink:href="#DejaVuSans-65" transform="translate(699.21875 0)"/>
      <use xlink:href="#DejaVuSans-6c" transform="translate(760.742188 0)"/>
      <use xlink:href="#DejaVuSans-73" transform="translate(788.525391 0)"/>
     </g>
    </g>
   </g>
  </g>
 </g>
 <defs>
  <clipPath id="p831c70df89">
   <rect x="124.5425" y="43.274" width="357.12" height="266.112"/>
  </clipPath>
 </defs>
</svg>
